<?xml version="1.0" standalone="no"?>
<!DOCTYPE svg PUBLIC "-//W3C//DTD SVG 20010904//EN"
 "http://www.w3.org/TR/2001/REC-SVG-20010904/DTD/svg10.dtd">
<svg version="1.0" xmlns="http://www.w3.org/2000/svg"
 width="400.000000pt" height="400.000000pt" viewBox="0 0 400.000000 400.000000"
 preserveAspectRatio="xMidYMid meet">
<metadata>
Created by potrace 1.13, written by Peter Selinger 2001-2015
</metadata>
<g transform="translate(0.000000,400.000000) scale(0.100000,-0.100000)"
fill="#000000" stroke="none">
<path fill="red" d="M815 2996 c-148 -38 -307 -138 -483 -302 l-84 -77 113 -113 113 -113
55 52 c96 91 208 174 285 213 66 32 82 36 133 32 69 -5 101 -25 135 -83 33
-57 68 -144 74 -187 6 -35 -13 -67 -430 -718 -240 -374 -436 -684 -436 -689 0
-9 245 -171 258 -171 4 0 140 208 302 462 162 254 302 471 311 482 15 18 16
10 22 -110 22 -458 156 -700 444 -802 l78 -27 953 -3 952 -3 0 160 0 161 -937
2 -938 3 -41 22 c-88 47 -140 136 -170 293 -20 100 -34 459 -24 590 28 348
-87 706 -270 844 -87 65 -156 88 -270 92 -56 2 -115 -2 -145 -10z"/>
<path fill="blue" d="M1800 2750 l0 -200 335 0 335 0 0 -80 0 -80 -400 0 -400 0 0 -545 0
-545 930 0 930 0 0 545 0 545 -400 0 -400 0 0 80 0 80 335 0 335 0 0 200 0
200 -800 0 -800 0 0 -200z m670 -905 l0 -145 -270 0 -270 0 0 145 0 145 270 0
270 0 0 -145z m800 0 l0 -145 -270 0 -270 0 0 145 0 145 270 0 270 0 0 -145z"/>
</g>
</svg>
