<svg xmlns="http://www.w3.org/2000/svg" viewBox="0 0 512 512"><circle cx="256" cy="256" r="235" fill="#fff"/><path stroke="#000" stroke-width="5" d="M255.6 20a236 236 0 1 0 .8 472 236 236 0 0 0-.8-472zm2.2 1A235 235 0 0 1 422 422.3 117.5 117.5 0 0 1 256 256 119.4 119.4 0 0 0 115.5 66.4 234.2 234.2 0 0 1 257.8 21zM67 151.3h40c10 42.1 25.2 79.4 40.8 116.4A677.5 677.5 0 0 1 203 151.3h40c-49 97.3-102.2 164-24 250h-40c-47.6-77.3-82.4-147.7-112-250z"/><path d="M293 110.7c78.2 86 25 152.7-24 250h40c22-35.2 39.4-75 55.3-116.4 15.5 37 30.8 74.3 40.7 116.4h40c-29.6-102.3-64.4-172.7-112-250z"/></svg>