<?xml version="1.0" encoding="UTF-8" ?>
<!DOCTYPE svg PUBLIC "-//W3C//DTD SVG 1.1//EN" "http://www.w3.org/Graphics/SVG/1.1/DTD/svg11.dtd">
<svg width="200pt" height="198pt" viewBox="0 0 100 99" version="1.1" xmlns="http://www.w3.org/2000/svg">
<circle fill="#ffffff" cx="49.75" cy="49.5" r="48.5"/>
<path fill="#5881d8" d=" M 39.30 6.22 C 51.71 3.11 65.45 5.64 75.83 13.16 C 88.68 22.10 96.12 38.22 94.43 53.80 C 93.66 60.11 89.40 66.01 83.37 68.24 C 79.21 69.97 74.64 69.78 70.23 69.80 C 80.77 59.67 81.41 41.33 71.45 30.60 C 63.60 21.32 49.75 18.52 38.65 23.16 C 31.27 18.80 21.83 18.68 14.27 22.69 C 20.65 14.79 29.32 8.56 39.30 6.22 Z" />
<path fill="#90b4fe" d=" M 42.93 26.99 C 48.49 25.50 54.55 25.62 59.79 28.14 C 68.71 32.19 74.61 42.14 73.41 51.94 C 72.85 58.64 68.92 64.53 63.81 68.69 C 59.57 66.71 57.53 62.30 55.66 58.30 C 50.76 48.12 50.23 36.02 42.93 26.99 Z" />
<path fill="#63b132" d=" M 12.30 33.30 C 17.11 28.49 24.33 26.90 30.91 28.06 C 25.22 33.49 21.44 41.03 21.46 48.99 C 21.11 58.97 26.58 68.76 35.08 73.92 C 43.28 79.06 53.95 79.28 62.66 75.29 C 70.37 77.57 78.52 77.36 86.31 75.57 C 80.05 84.00 70.94 90.35 60.69 92.84 C 48.02 96.03 34.00 93.24 23.56 85.37 C 12.16 77.09 5.12 63.11 5.44 49.00 C 5.15 43.06 8.22 37.42 12.30 33.30 Z" />
<path fill="#91dc47" d=" M 26.94 54.00 C 24.97 45.06 29.20 35.59 36.45 30.24 C 41.99 33.71 44.23 40.14 46.55 45.91 C 43.00 53.40 38.44 60.46 35.94 68.42 C 31.50 64.74 27.96 59.77 26.94 54.00 Z" />
<path fill="#91dc47" d=" M 41.97 71.80 C 41.46 64.27 45.31 57.52 48.11 50.80 C 50.40 58.13 51.84 66.19 57.18 72.06 C 52.17 73.37 46.93 73.26 41.97 71.80 Z" />
</svg>
