<?xml version="1.0" encoding="UTF-8" standalone="no"?>
<svg
   xmlns:dc="http://purl.org/dc/elements/1.1/"
   xmlns:cc="http://creativecommons.org/ns#"
   xmlns:rdf="http://www.w3.org/1999/02/22-rdf-syntax-ns#"
   xmlns:svg="http://www.w3.org/2000/svg"
   xmlns="http://www.w3.org/2000/svg"
   height="99.099998"
   width="99.409019"
   xml:space="preserve"
   viewBox="-134 328.3 99.409022 99.100001"
   y="0px"
   x="0px"
   id="Layer_1"
   version="1.1"><metadata
     id="metadata11"><rdf:RDF><cc:Work
         rdf:about=""><dc:format>image/svg+xml</dc:format><dc:type
           rdf:resource="http://purl.org/dc/dcmitype/StillImage" /><dc:title></dc:title></cc:Work></rdf:RDF></metadata><defs
     id="defs9" /><style
     id="style3"
     type="text/css">
	.st0{fill:#010101;}
</style><g
     transform="translate(-19.2,-19.300012)"
     id="XMLID_80_"><path
       style="fill:#010101"
       d="m -15.6,410.7 -36,35.9 c -0.1,0.1 -0.3,0.1 -0.6,0.1 l -49.1,-13.1 c -0.1,0 -0.3,-0.1 -0.4,-0.4 l -13.1,-49 c 0,-0.1 0,-0.4 0.1,-0.6 l 36,-35.9 c 0.1,-0.1 0.3,-0.1 0.6,-0.1 l 49.1,13.2 c 0.1,0 0.3,0.1 0.4,0.4 l 13.1,49 c 0.2,0.2 0.1,0.4 -0.1,0.5 z m -48.1,-39 -48.2,13 c -0.1,0 -0.1,0.1 0,0.3 l 35.3,35.3 c 0.1,0.1 0.1,0 0.3,0 l 13,-48.1 c -0.2,-0.5 -0.4,-0.5 -0.4,-0.5 z"
       class="st0"
       id="XMLID_81_" /></g></svg>