<svg xmlns="http://www.w3.org/2000/svg" viewBox="0 0 47.6 47.6"><path fill="#d0343f" d="M20.8 1a23 23 0 0 0 0 45.6V40a16.4 16.4 0 0 1 0-32.2z"/><path fill="#1a1a1a" d="M26.9 1v6.7a16.4 16.4 0 0 1 0 32.2v6.7a23 23 0 0 0 0-45.6z"/><g style="line-height:0%;-inkscape-font-specification:&quot;URW Gothic L Semi-Bold&quot;;text-align:center" text-anchor="middle" word-spacing="0"><path fill="#1a1a1a" d="M90 1846v-14.5h54.4v2q0 16.3-11.5 28.7l-.5.4q-12.5 12.8-31.5 12.8-18.7 0-31.7-11.9-12.6-11.6-13.5-29v-2.3q0-17.1 11.7-29.5 11.9-12.2 29-13.3l3-.1q16 0 28.5 9.7 8.8 6.8 12.2 16.2H122q-8-11-23-11-12.5 0-20 8.2-6.5 6.7-7.6 17l-.2 3q0 12.9 9.4 21 8 7.2 19.4 7.2 13.7 0 21.5-10 1.7-2 3-4.7z" aria-label="G" font-family="URW Gothic L" font-size="112.6" font-weight="600" letter-spacing="0" style="line-height:1.25" transform="translate(-2.6 -461) scale(.2646)"/></g></svg>