<?xml version="1.0" standalone="no"?>
<!DOCTYPE svg PUBLIC "-//W3C//DTD SVG 20010904//EN"
 "http://www.w3.org/TR/2001/REC-SVG-20010904/DTD/svg10.dtd">
<svg version="1.0" xmlns="http://www.w3.org/2000/svg"
 width="18432.000000pt" height="18432.000000pt" viewBox="0 0 18432.000000 18432.000000"
 preserveAspectRatio="xMidYMid meet">
<metadata>
Created by potrace 1.16, written by Peter Selinger 2001-2019
</metadata>
<g transform="translate(0.000000,18432.000000) scale(72.000000,-72.000000)"
fill="#000000" stroke="none">
<path d="M142 243 l-4 0 -4 -2 -4 -2 -4 -6 -5 -5 -2 -5 -3 -5 0 -8 0 -8 1 -7
1 -6 4 -12 3 -11 2 -4 2 -4 0 -1 1 -2 -3 -1 -2 -1 2 0 3 0 0 2 1 1 -3 7 -3 8
-3 12 -4 12 -1 10 0 11 3 7 4 6 5 6 6 6 3 1 4 0 1 -1 1 -1 0 1 1 1 2 -1 3 -1
3 -3 4 -3 2 -4 2 -5 2 -17 3 -18 0 -9 1 -9 0 0 1 0 0 5 1 4 2 -2 2 -2 -2 0 -2
1 0 -2 0 -3 1 0 0 -1 2 1 2 0 0 3 -1 4 1 -2 1 -2 0 2 1 2 -1 -4 0 -3 1 1 1 2
1 -2 0 -1 2 3 1 2 -1 1 -1 2 0 -2 1 -1 -1 -1 -1 -1 0 3 -1 3 -2 5 -1 5 1 -4 0
-4 -1 0 -1 0 0 3 0 3 -1 2 -1 2 1 -5 0 -5 -1 1 -1 1 0 3 -1 4 0 -4 0 -4 -1 0
-1 -1 0 4 0 5 -1 3 0 4 1 0 1 0 0 -3 0 -3 2 2 2 2 0 3 -1 3 0 -3 0 -3 -1 0 -1
0 -1 3 0 4 0 5 1 6 -1 3 -1 3 1 9 0 9 1 -5 1 -4 0 4 0 5 -1 0 -1 0 1 1 0 1 4
0 4 0 4 -2 4 -2 2 -2 2 -3 2 -5 3 -6 2 -10 1 -11 0 -14 0 -13 -2 -1 -1 -1 0
-1 0 -1 2 1 1 0 0 -2 0 -1 1 2 1 2 -1 0 -1 0 1 13 0 14 -1 10 -1 10 -2 6 -2 6
-3 4 -3 4 -5 2 -4 2 -5 0 -4 0 -1 -6 -1 -5 0 -14 0 -14 0 0 -1 1 -1 10 -2 11
-2 4 -2 4 -3 3 -2 3 -4 2 -3 1 -4 0z m31 -68 l0 0 0 0 0 -1 0 0 -1 0 0 1 0 0
1 0z"/>
<path d="M172 241 l-1 0 0 -1 0 -1 1 0 0 1 0 1z"/>
<path d="M174 240 l-1 0 0 0 0 -1 1 0 0 0 0 1 0 0 0 0z"/>
<path d="M176 240 l-1 0 0 0 0 -1 1 0 0 0 0 1 0 0 0 0z"/>
<path d="M138 239 l-1 0 0 0 0 -1 1 0 0 0 0 1 0 0 0 0z"/>
<path d="M150 239 l-1 0 0 -2 0 -1 1 1 0 1 0 1z"/>
<path d="M179 239 l-1 0 0 -2 0 -1 1 1 0 1 0 1z"/>
<path d="M153 236 l-1 0 0 -1 0 -1 1 0 0 1 0 1z"/>
<path d="M146 234 l-1 0 0 0 0 -1 1 0 0 0 0 1 0 0 0 0z"/>
<path d="M156 230 l-1 0 0 0 0 -1 1 0 0 0 0 1 0 0 0 0z"/>
<path d="M127 228 l-1 0 0 0 0 -1 1 0 0 0 0 1 0 0 0 0z"/>
<path d="M157 228 l-1 0 0 0 0 -1 1 0 0 0 0 1 0 0 0 0z"/>
<path d="M170 226 l-1 3 0 -6 0 -5 1 2 0 3 0 3z"/>
<path d="M149 219 l-1 8 0 -6 0 -6 2 -7 2 -7 0 -1 -1 0 -1 1 -1 1 1 1 0 2 -1
-1 -1 -1 1 -5 0 -4 2 0 1 0 0 -2 0 -2 -1 1 0 2 -1 -1 -1 -1 -1 1 -1 2 0 -3 0
-2 1 0 1 0 0 -2 0 -2 -1 1 -2 2 0 3 -1 3 -1 1 0 1 1 0 2 -1 0 3 0 2 -2 0 -1 0
0 1 -1 2 1 -3 0 -3 -1 0 -1 1 0 0 0 0 1 -5 2 -4 1 -4 2 -4 0 -1 -1 0 -1 2 -2
3 -1 2 0 3 -1 1 -1 0 3 -7 2 -7 0 -1 0 0 -2 3 -2 4 -1 4 -1 3 -1 -1 -1 -1 -2
0 -3 1 0 -1 0 -1 2 -5 2 -4 0 -1 0 0 -1 0 -1 0 -1 5 -2 5 0 2 0 2 0 1 1 2 -1
-2 -1 -1 -1 0 -1 0 0 3 0 4 -1 -3 0 -2 -2 1 -1 1 1 -3 1 -3 1 0 1 0 3 -10 3
-10 1 1 1 0 1 -3 1 -3 1 0 0 0 -1 1 0 1 1 0 2 -1 -1 2 0 3 1 -2 1 -1 1 1 0 1
1 -1 1 -1 0 2 0 2 0 1 0 1 2 -2 1 -1 0 1 -1 1 1 0 1 0 0 -1 0 -1 1 1 1 0 0 3
-1 2 2 1 2 0 0 0 1 0 0 2 0 2 1 -2 1 -1 0 1 0 2 1 -2 1 -1 -1 12 0 13 -1 6 -1
6 -2 -1 -1 0 0 1 0 2 1 0 1 0 0 3 0 4 -1 0 -2 1 0 -1 0 -1 -1 1 -1 2 0 -4 0
-4 0 -4 0 -3 -1 0 0 1 -1 7z m4 3 l0 0 0 0 0 -1 0 0 -1 0 0 1 0 0 1 0z m0 -2
l0 0 0 -5 0 -5 -1 2 -1 3 1 3 0 2 1 0z m-1 -11 l0 0 0 0 0 -1 0 0 -1 0 0 1 0
0 1 0z m2 -5 l0 -2 0 -2 -1 -1 0 3 0 4 1 -2z m-3 -8 l0 0 0 0 0 -1 0 0 -1 0 0
1 0 0 1 0z m3 -3 l0 0 0 0 0 -1 0 0 -1 0 0 1 0 0 1 0z m0 -2 l0 -1 0 -1 -1 -1
0 1 0 2 1 0z m-13 -10 l0 0 0 0 0 -1 0 0 -1 0 0 1 0 0 1 0z m-3 -6 l0 0 0 0 0
-1 0 0 -1 0 0 1 0 0 1 0z m2 -1 l1 0 0 -1 0 -1 -1 0 -2 0 1 2 0 1 1 -1z"/>
<path d="M144 225 l-1 0 0 -5 0 -5 1 0 0 1 0 4 0 4 0 1z"/>
<path d="M146 224 l-1 2 1 -2 0 -2 1 0 0 1 -1 1z"/>
<path d="M123 224 l-1 0 0 0 0 -1 1 0 0 0 0 1 0 0 0 0z"/>
<path d="M134 224 l-1 0 0 -1 0 0 1 -2 1 -2 0 2 0 2 -1 1z"/>
<path d="M137 224 l0 0 0 -2 0 -2 1 -2 1 -2 -1 4 0 4 -1 0z"/>
<path d="M141 221 l-1 2 0 -3 0 -3 1 1 0 2 0 1z"/>
<path d="M147 221 l-1 0 0 -1 0 -1 1 0 0 1 0 1z"/>
<path d="M178 221 l-1 0 0 0 0 -1 1 0 0 0 0 1 0 0 0 0z"/>
<path d="M132 220 l-1 0 0 0 0 -1 1 0 0 0 0 1 0 0 0 0z"/>
<path d="M172 219 l-1 0 0 -1 0 -1 1 0 0 1 0 1z"/>
<path d="M130 218 l0 0 0 -2 0 -2 1 -2 1 -2 -1 4 0 4 -1 0z"/>
<path d="M136 218 l-1 0 0 -2 0 -1 1 1 0 1 0 1z"/>
<path d="M178 218 l-1 0 0 -2 0 -1 1 1 0 1 0 1z"/>
<path d="M183 216 l-1 2 0 -3 0 -2 1 1 0 1 0 1z"/>
<path d="M128 216 l-1 0 0 0 0 -1 1 0 0 0 0 1 0 0 0 0z"/>
<path d="M142 214 l-2 2 0 -1 0 -1 3 -2 2 -2 0 1 0 2 -1 0 -1 -1 -1 2z"/>
<path d="M147 215 l-1 2 0 -3 0 -2 1 1 0 1 0 1z"/>
<path d="M126 215 l-1 0 0 -1 0 -1 1 0 0 1 0 1z"/>
<path d="M178 214 l-1 0 0 -2 0 -1 1 1 0 1 0 1z"/>
<path d="M136 213 l-1 0 0 -1 -1 0 0 -3 0 -2 1 1 0 1 1 0 1 -1 -1 3 0 2 0 0z"/>
<path d="M138 213 l-1 0 1 -2 0 -2 1 -1 1 0 -1 2 0 2 -1 1z"/>
<path d="M128 212 l-1 0 0 -1 0 -1 1 0 0 1 0 1z"/>
<path d="M126 211 l-1 0 0 -1 0 -1 1 0 0 1 0 1z"/>
<path d="M148 211 l-1 0 0 -1 0 -1 1 0 0 1 0 1z"/>
<path d="M170 210 l-1 2 0 -3 0 -2 1 1 0 1 0 1z"/>
<path d="M119 210 l-1 0 0 -2 0 -1 1 1 0 1 0 1z"/>
<path d="M174 210 l-1 0 0 -2 0 -1 1 1 0 1 0 1z"/>
<path d="M129 209 l-1 0 0 -1 0 -1 1 0 0 1 0 1z"/>
<path d="M133 209 l-1 0 0 0 0 -1 1 0 0 0 0 1 0 0 0 0z"/>
<path d="M145 209 l0 0 0 -1 0 -1 2 -2 1 -1 -1 2 -1 3 -1 0z"/>
<path d="M127 205 l-2 4 0 -1 0 -1 1 -5 2 -4 0 2 0 2 -1 3z"/>
<path d="M143 207 l-1 2 0 -2 1 -2 0 -1 0 -1 1 0 2 -1 -1 2 0 2 -2 1z"/>
<path d="M183 208 l-1 0 0 -2 0 -1 1 1 0 1 0 1z"/>
<path d="M140 206 l-1 2 0 -1 0 -1 1 -2 1 -2 0 1 0 2 -1 1z"/>
<path d="M130 206 l-1 0 0 -2 0 -1 1 1 0 1 0 1z"/>
<path d="M137 204 l-1 0 0 0 0 -1 1 0 0 0 0 1 0 0 0 0z"/>
<path d="M138 202 l-1 0 0 -2 -1 -1 1 -2 1 -2 1 0 0 0 0 3 -1 3 0 1z m0 -3 l0
0 0 0 0 -1 0 0 -1 0 0 1 0 0 1 0z"/>
<path d="M133 201 l-1 0 1 -3 1 -2 1 0 0 1 -1 2 0 2 -1 0z"/>
<path d="M176 201 l-1 0 0 -2 0 -1 1 1 0 1 0 1z"/>
<path d="M142 200 l-1 0 0 0 0 -1 1 0 0 0 0 1 0 0 0 0z"/>
<path d="M189 198 l-1 2 0 -4 0 -3 1 1 0 2 0 2z"/>
<path d="M181 197 l-1 2 0 -3 0 -3 1 1 0 2 0 1z"/>
<path d="M120 197 l-1 0 0 0 0 -1 1 0 0 0 0 1 0 0 0 0z"/>
<path d="M131 197 l-1 0 0 0 0 -1 1 0 0 0 0 1 0 0 0 0z"/>
<path d="M173 196 l-1 0 0 -1 0 -1 1 0 0 1 0 1z"/>
<path d="M132 195 l-1 0 0 0 0 -1 1 0 0 0 0 1 0 0 0 0z"/>
<path d="M136 195 l-1 0 0 0 0 -1 1 0 0 0 0 1 0 0 0 0z"/>
<path d="M141 194 l-1 0 0 0 0 -1 1 0 0 0 0 1 0 0 0 0z"/>
<path d="M135 192 l0 0 0 -1 0 -1 1 0 1 -1 -1 1 0 2 -1 0z"/>
<path d="M139 192 l-1 0 0 0 0 -1 1 0 0 0 0 1 0 0 0 0z"/>
<path d="M127 187 l0 0 0 -1 0 -2 1 0 1 -1 -1 2 0 2 -1 0z"/>
<path d="M178 187 l-1 0 0 0 0 -1 1 0 0 0 0 1 0 0 0 0z"/>
<path d="M180 186 l-1 0 0 0 0 -1 1 0 0 0 0 1 0 0 0 0z"/>
<path d="M180 184 l-1 0 0 0 0 -1 1 0 0 0 0 1 0 0 0 0z"/>
<path d="M187 182 l-1 2 0 -3 0 -2 1 1 0 1 0 1z"/>
<path d="M183 181 l-1 2 0 -3 0 -3 1 1 0 2 0 1z"/>
<path d="M191 181 l-1 2 0 -4 0 -3 1 1 0 2 0 2z"/>
<path d="M109 176 l-3 1 0 -2 1 -1 -3 1 -3 0 0 -1 1 -1 5 -3 6 -2 -3 2 -2 2 2
1 2 1 1 0 2 0 3 0 3 0 -1 2 0 1 -2 0 -2 0 -2 -1 -1 -1 -4 1z"/>
<path d="M130 177 l-1 0 0 -2 0 -1 1 1 0 1 0 1z"/>
<path d="M154 176 l-1 0 0 -2 0 -1 1 1 0 1 0 1z"/>
<path d="M157 176 l-1 0 0 -2 0 -1 1 1 0 1 0 1z"/>
<path d="M182 176 l-1 0 0 -2 0 -1 1 1 0 1 0 1z"/>
<path d="M185 175 l-1 1 0 -2 -1 -2 1 1 1 1 0 1z"/>
<path d="M188 176 l-1 0 0 -2 0 -1 1 1 0 1 0 1z"/>
<path d="M190 174 l-1 0 0 -2 0 -1 1 1 0 1 0 1z"/>
<path d="M99 173 l-1 0 1 -1 0 -1 1 0 0 0 0 1 0 1 -1 0z"/>
<path d="M193 173 l-1 0 0 -2 -1 -1 1 1 1 1 0 1z"/>
<path d="M95 172 l-1 0 0 -1 1 -1 2 -1 3 -1 -2 2 -2 2 -1 0z"/>
<path d="M165 171 l0 1 -3 -1 -3 -1 1 0 1 -1 1 1 1 0 0 -1 -1 -1 1 0 2 0 0 1
1 2 -1 0z"/>
<path d="M90 171 l-1 0 1 -1 2 -1 0 0 1 0 0 1 -1 1 -2 0z"/>
<path d="M118 171 l-2 0 1 -1 1 0 1 0 2 1 -3 0z"/>
<path d="M201 171 l-1 0 0 -1 -1 0 0 -2 0 -1 1 1 1 2 0 1z"/>
<path d="M157 169 l-2 1 1 -1 2 -2 1 0 1 0 0 0 0 1 -3 1z"/>
<path d="M105 169 l-1 0 0 0 0 -1 1 0 0 0 0 1 0 0 0 0z"/>
<path d="M87 168 l-1 0 1 -1 0 -1 1 0 1 0 0 1 -1 1 -1 0z"/>
<path d="M102 168 l-2 0 0 0 1 -1 3 -1 3 -2 1 2 1 1 -2 0 -1 1 1 -1 0 -1 -2 0
-1 1 -2 1z"/>
<path d="M115 168 l-1 0 0 -1 0 -1 2 0 3 0 -2 1 -1 1 -1 0z"/>
<path d="M155 167 l-2 1 1 -1 2 -2 1 0 1 0 0 0 0 1 -3 1z"/>
<path d="M204 168 l-1 0 -1 -1 -1 -2 1 0 1 0 -1 -1 0 -2 1 0 1 0 0 2 1 1 -1 0
-1 0 0 2 1 1 0 0z"/>
<path d="M96 167 l-1 0 2 -1 3 -2 2 0 3 -1 -4 2 -4 2 -1 0z"/>
<path d="M123 165 l-1 2 0 -1 0 -2 1 -1 1 0 0 0 1 1 -2 1z"/>
<path d="M151 166 l-2 1 1 -2 2 -1 1 0 0 1 -2 1z"/>
<path d="M84 165 l-4 1 1 -2 2 -1 -3 0 -3 1 1 -1 2 -2 -2 -1 -1 -2 -4 0 -3 1
0 -1 0 -1 2 0 2 0 0 -1 -1 -1 -2 0 -2 0 0 -1 0 -1 2 -1 3 -1 2 1 3 1 1 -1 0
-1 2 0 2 0 -3 2 -3 2 1 0 2 0 2 -2 3 -1 -2 2 -2 2 -4 0 -3 0 0 0 1 1 2 0 3 0
0 1 0 1 1 0 2 0 1 -1 1 -2 1 0 1 0 -1 2 -2 2 0 1 0 1 1 1 1 1 4 -2 4 -2 1 0 1
0 -5 2 -4 3 -4 0z"/>
<path d="M94 165 l-2 1 1 -1 2 -2 1 0 1 0 0 0 0 1 -3 1z"/>
<path d="M137 165 l-1 2 0 -3 0 -2 1 0 1 -1 0 1 0 1 -1 2z"/>
<path d="M155 164 l-1 0 0 -1 1 0 1 0 0 1 -1 0z"/>
<path d="M99 163 l-1 0 0 0 0 -1 1 0 0 0 0 1 0 0 0 0z"/>
<path d="M121 163 l-1 0 1 -2 1 -1 1 0 0 1 0 1 -1 1 -1 0z"/>
<path d="M206 163 l-1 0 -1 -1 -1 -2 0 -1 1 0 1 2 1 1 0 1z"/>
<path d="M194 162 l-1 0 -1 -2 -1 -2 0 0 1 0 1 2 1 2 0 0z"/>
<path d="M74 161 l-1 0 0 0 0 -1 2 0 1 -1 -1 1 0 1 -1 0z"/>
<path d="M88 161 l-1 0 1 -2 1 -2 1 0 1 0 -1 2 -1 2 -1 0z"/>
<path d="M196 161 l-1 0 -1 -2 -1 -2 1 0 1 0 -1 -2 0 -2 1 0 1 1 0 2 1 2 -1
-1 -1 0 0 2 1 2 0 0z"/>
<path d="M98 160 l-1 0 0 0 0 -1 1 0 0 0 0 1 0 0 0 0z"/>
<path d="M205 157 l-1 0 0 -7 1 -7 1 -2 1 -2 4 -4 3 -4 0 -3 0 -3 1 0 1 0 0 5
-1 5 -1 1 -1 1 -1 7 -2 8 -2 2 -1 3 -2 0z m1 -2 l1 0 1 -3 1 -2 -1 -1 -1 -1
-1 0 -1 1 0 3 0 3 1 0z"/>
<path d="M112 156 l-1 0 1 -1 1 0 1 0 0 1 -2 0z"/>
<path d="M92 154 l-1 0 0 -1 1 0 1 0 0 1 -1 0z"/>
<path d="M197 154 l0 0 -1 -2 -1 -2 1 0 1 0 0 2 1 2 -1 0z"/>
<path d="M66 152 l-1 0 0 -1 0 -1 1 0 1 0 0 1 0 1 -1 0z"/>
<path d="M90 151 l-1 0 0 -1 1 0 1 0 0 1 -1 0z"/>
<path d="M199 151 l-1 0 -1 -2 -1 -3 1 0 1 0 1 2 0 2 0 1z"/>
<path d="M71 150 l-1 0 1 -1 0 -1 1 0 1 0 0 1 -1 1 -1 0z"/>
<path d="M126 150 l-2 0 1 -2 0 -2 2 1 2 0 -1 2 0 1 -2 0z"/>
<path d="M143 149 l-2 1 0 0 0 -1 3 -2 4 -2 -2 1 -1 2 -2 1z"/>
<path d="M145 150 l0 0 1 -1 0 -1 1 0 0 0 0 1 -1 1 -1 0z"/>
<path d="M161 150 l-2 0 -2 -1 -1 0 -2 -2 -2 -1 0 -6 0 -5 2 -5 2 -5 4 -1 4
-1 1 0 2 0 4 2 4 1 1 2 1 2 -2 6 -1 6 -2 3 -2 2 -3 2 -3 1 -3 0z m10 -7 l2 -2
0 -2 0 -1 -1 0 -1 0 0 -1 1 -2 -1 0 -1 0 0 -1 1 -1 -2 0 -2 0 1 2 0 2 -1 1 -1
0 0 2 0 2 1 2 2 2 2 -3z m0 -12 l0 0 0 0 0 -1 0 0 -1 0 0 1 0 0 1 0z"/>
<path d="M68 148 l-1 0 0 -1 0 -1 2 0 3 0 -2 1 -1 1 -1 0z"/>
<path d="M122 148 l-1 0 0 -1 1 0 1 0 0 1 -1 0z"/>
<path d="M142 147 l-2 1 0 0 0 -1 3 -1 2 -2 0 1 -1 1 -2 1z"/>
<path d="M64 147 l-2 0 0 -1 0 -1 1 0 1 0 1 1 2 1 -3 0z"/>
<path d="M74 147 l-2 0 1 -1 2 0 3 -1 3 -1 -2 2 -2 1 -3 0z"/>
<path d="M87 146 l-3 0 1 -1 2 0 1 0 2 1 -3 0z"/>
<path d="M121 145 l-1 0 0 -1 -1 -2 1 0 1 0 0 2 1 1 -1 0z"/>
<path d="M124 145 l-1 0 0 -1 0 -1 1 0 0 -1 2 1 1 0 -1 1 0 1 -2 0z"/>
<path d="M140 145 l0 0 2 -2 2 -3 1 0 0 0 -2 3 -2 2 -1 0z"/>
<path d="M84 144 l-2 0 0 0 0 -1 2 0 3 -1 -1 1 0 1 -2 0z"/>
<path d="M62 143 l-1 0 1 -1 1 0 1 0 0 1 -2 0z"/>
<path d="M69 143 l-3 0 4 -1 4 -1 2 0 3 0 -3 1 -3 1 -4 0z"/>
<path d="M95 143 l-1 0 0 -1 1 0 1 0 0 1 -1 0z"/>
<path d="M201 142 l-1 0 0 -2 -1 -1 0 -1 0 0 1 1 1 2 0 1z"/>
<path d="M108 141 l-1 0 1 -1 1 0 1 0 0 1 -2 0z"/>
<path d="M123 141 l-4 0 0 -1 0 -1 2 1 2 0 0 -1 0 -1 -2 0 -1 0 1 -1 1 0 3 1
3 2 0 0 0 1 -5 0z"/>
<path d="M131 141 l-1 0 0 0 0 -1 1 0 0 0 0 1 0 0 0 0z"/>
<path d="M61 140 l-2 0 0 -1 0 -2 -2 0 -1 -1 2 0 3 0 0 1 -1 0 1 2 1 1 -1 0z"/>
<path d="M71 140 l-1 0 -4 -1 -3 -1 2 0 3 0 1 -1 1 -1 3 0 3 1 -4 0 -3 0 0 1
0 1 4 -1 4 0 -2 1 -2 1 -2 0z"/>
<path d="M84 140 l-3 0 1 -1 2 0 2 0 2 1 -4 0z"/>
<path d="M133 140 l-1 0 0 0 0 -1 1 0 0 0 0 1 0 0 0 0z"/>
<path d="M147 140 l-1 0 0 0 0 -1 1 0 0 0 0 1 0 0 0 0z"/>
<path d="M203 140 l-1 0 0 -2 -1 -1 1 1 1 1 0 1z"/>
<path d="M97 139 l-1 0 0 0 0 -1 1 0 0 0 0 1 0 0 0 0z"/>
<path d="M110 139 l-2 0 -3 -1 -2 -1 2 0 2 0 2 1 3 1 -2 0z"/>
<path d="M205 138 l-1 0 0 0 0 -1 1 0 0 0 0 1 0 0 0 0z"/>
<path d="M111 137 l-1 0 1 -1 1 0 1 0 0 1 -2 0z"/>
<path d="M127 137 l-1 0 -1 -2 -2 -2 1 0 1 0 2 2 1 2 -1 0z"/>
<path d="M134 137 l-1 0 0 0 0 -1 1 0 0 0 0 1 0 0 0 0z"/>
<path d="M107 136 l-3 0 1 -1 2 0 1 0 2 1 -3 0z"/>
<path d="M204 136 l-1 0 0 -1 0 -1 1 0 0 1 0 1z"/>
<path d="M72 135 l-3 0 0 -2 -1 -1 3 0 4 1 -1 1 0 1 -2 0z"/>
<path d="M84 135 l0 0 -4 -1 -3 -1 3 0 4 0 1 1 0 1 -1 0z"/>
<path d="M206 135 l-1 0 0 -1 0 -1 1 0 0 1 0 1z"/>
<path d="M59 134 l-2 0 0 -1 -1 -1 1 0 1 0 1 1 2 1 -2 0z"/>
<path d="M63 134 l-1 0 0 -1 0 -1 1 0 1 0 0 1 0 1 -1 0z"/>
<path d="M111 134 l-1 0 1 -1 1 0 1 0 0 1 -2 0z"/>
<path d="M129 134 l-1 0 -1 -1 0 -2 0 -2 1 -2 2 2 2 2 -2 0 -2 -1 1 1 1 1 0 1
0 1 -1 0z"/>
<path d="M134 134 l-1 0 0 0 0 -1 1 0 0 0 0 1 0 0 0 0z"/>
<path d="M107 133 l-2 0 1 -1 1 0 1 0 2 1 -3 0z"/>
<path d="M136 133 l-1 0 0 -1 1 0 1 0 0 1 -1 0z"/>
<path d="M209 133 l-1 0 -1 -1 0 -1 1 0 1 1 0 1 0 0 0 0z"/>
<path d="M205 132 l-1 0 0 0 0 -1 1 0 0 0 0 1 0 0 0 0z"/>
<path d="M62 131 l-2 0 1 -1 1 0 1 0 2 1 -3 0z"/>
<path d="M110 131 l-1 0 0 -1 1 0 1 0 0 1 -1 0z"/>
<path d="M113 131 l-1 0 0 0 0 -1 1 0 0 0 0 1 0 0 0 0z"/>
<path d="M202 131 l-1 0 0 -1 0 -1 1 0 0 1 0 1z"/>
<path d="M72 130 l-1 0 0 -1 1 0 1 0 0 1 -1 0z"/>
<path d="M124 130 l-1 0 0 -1 -1 -1 1 1 2 0 0 1 0 0 -1 0z"/>
<path d="M136 130 l-1 0 0 -1 1 0 1 0 0 1 -1 0z"/>
<path d="M207 130 l-1 0 0 0 0 -1 1 0 0 0 0 1 0 0 0 0z"/>
<path d="M56 129 l-1 0 1 -1 1 0 1 0 0 1 -2 0z"/>
<path d="M69 129 l-1 0 -5 -1 -4 -1 3 0 4 0 0 -3 1 -3 1 0 2 1 1 0 2 1 -1 1
-1 1 1 0 2 0 0 1 0 2 -3 -1 -3 0 1 1 2 1 -2 0z"/>
<path d="M80 129 l-1 0 -1 -1 0 -1 1 0 1 1 0 1 0 0 0 0z"/>
<path d="M114 128 l-3 0 1 -1 2 0 1 0 2 1 -3 0z"/>
<path d="M203 128 l-1 0 0 -1 0 -1 1 0 0 1 0 1z"/>
<path d="M95 127 l-1 0 0 -1 1 0 1 0 0 1 -1 0z"/>
<path d="M110 127 l-1 0 0 0 0 -1 1 0 0 0 0 1 0 0 0 0z"/>
<path d="M124 127 l-1 0 -1 -1 0 -1 1 0 1 1 0 1 0 0 0 0z"/>
<path d="M131 127 l-1 0 -1 -2 -2 -2 0 -1 0 -2 1 0 1 0 1 2 0 2 0 0 1 1 0 1 1
1 -1 0z"/>
<path d="M135 127 l-1 0 0 -1 1 0 1 0 0 1 -1 0z"/>
<path d="M81 126 l-1 0 0 0 0 -1 1 0 0 0 0 1 0 0 0 0z"/>
<path d="M139 126 l-1 0 0 -1 1 0 1 0 0 1 -1 0z"/>
<path d="M205 126 l-1 0 0 0 0 -1 1 0 0 0 0 1 0 0 0 0z"/>
<path d="M208 126 l-1 0 0 0 0 -1 1 0 0 0 0 1 0 0 0 0z"/>
<path d="M56 125 l-2 0 0 -1 -1 -1 1 0 1 0 1 1 2 1 -2 0z"/>
<path d="M97 125 l0 0 -2 -1 -2 -1 1 0 2 0 1 1 0 1 0 0z"/>
<path d="M114 125 l-2 0 0 -1 -1 -1 3 1 2 0 0 1 0 0 -2 0z"/>
<path d="M61 124 l-2 0 0 -1 -1 -1 1 0 1 0 1 1 2 1 -2 0z"/>
<path d="M109 124 l-1 0 0 -1 1 0 1 0 0 1 -1 0z"/>
<path d="M125 124 l-1 0 0 -1 0 -1 1 0 0 1 0 1z"/>
<path d="M210 124 l-1 0 0 -2 -1 -2 0 -1 1 0 1 2 0 2 0 1z"/>
<path d="M216 124 l-1 0 0 -1 -1 -1 1 0 1 0 0 1 0 1 0 0z"/>
<path d="M92 123 l-1 0 0 0 0 -1 1 0 0 0 0 1 0 0 0 0z"/>
<path d="M102 123 l-1 0 0 -1 1 0 1 0 0 1 -1 0z"/>
<path d="M118 123 l-1 0 -3 -1 -3 -1 2 0 3 0 2 1 2 1 -2 0z"/>
<path d="M98 122 l-1 0 -2 -1 -1 -1 1 0 1 0 1 1 2 1 -1 0z"/>
<path d="M139 122 l-2 0 1 -1 1 0 1 0 2 1 -3 0z"/>
<path d="M58 121 l-2 0 -3 -1 -2 -2 0 0 1 0 4 1 4 2 -2 0z"/>
<path d="M61 121 l-1 0 1 -1 0 -1 1 0 1 0 0 1 0 1 -2 0z"/>
<path d="M71 121 l-3 0 0 -1 -1 0 1 -3 1 -2 1 0 1 0 0 -1 0 -1 -1 0 -1 1 -3
-2 -3 -2 -1 0 -1 0 2 1 2 1 1 2 1 1 -1 0 -2 0 0 -1 -1 -1 -4 0 -3 0 1 1 1 0
-1 2 0 1 1 0 2 0 0 -1 -1 -1 1 0 1 -1 1 1 2 2 -3 0 -3 1 -2 -1 -2 0 -2 -2 -2
-2 0 -1 0 0 2 1 1 1 0 -2 0 -1 -2 -2 -2 -1 1 0 2 0 0 -1 0 -1 -2 -1 -2 -1 0
-1 0 -1 2 1 2 1 0 -2 1 -1 -2 0 -3 0 0 -2 -1 -1 1 -1 0 -1 -1 0 -1 -1 1 -1 0
-1 2 1 1 2 -1 -3 -1 -2 1 -1 1 -1 -1 -2 0 -2 1 0 1 0 0 -1 -1 -2 1 0 0 0 2 1
3 1 -3 -2 -2 -3 1 -1 1 -1 -1 -2 0 -1 0 0 1 0 3 2 3 1 -3 -2 -2 -2 1 -4 1 -3
2 -3 3 -3 -1 -1 -1 -2 -7 0 -7 -1 8 0 8 0 0 1 0 1 1 0 1 0 -1 -1 0 -2 2 0 2 0
0 -1 0 -2 -2 0 -2 -1 -7 0 -6 0 5 -1 5 -1 -3 0 -2 -1 8 0 8 0 0 1 0 1 -3 0 -3
-1 0 1 0 1 2 0 3 0 2 -1 2 0 0 -2 0 -1 -5 0 -5 -1 -5 0 -5 -1 10 0 10 1 1 0 2
1 0 -1 0 -2 -6 0 -5 -1 7 0 7 0 0 1 0 1 1 0 1 0 0 -1 0 -2 -3 0 -3 0 0 -1 1 0
4 0 3 -1 2 1 2 1 1 -2 0 -2 2 1 1 0 0 -1 0 -1 -15 0 -14 -1 14 0 15 0 1 2 1 2
1 0 1 0 0 -1 -1 -2 3 -1 3 -1 2 0 3 0 -9 -1 -8 -1 11 0 11 0 -2 1 -2 1 3 0 2
1 1 -1 1 -1 1 1 2 1 3 -1 3 -1 0 1 0 1 4 0 5 -1 0 0 0 0 0 -1 0 -1 -7 0 -7 -1
13 0 13 0 0 1 -1 1 -5 0 -4 0 0 0 1 1 0 0 1 0 2 2 2 1 0 -1 0 -2 1 0 1 0 0 2
0 1 1 0 1 0 0 -2 0 -1 1 1 2 2 1 0 1 0 0 -1 0 -1 2 1 1 2 1 -2 0 -1 2 0 2 0 1
2 2 1 0 0 1 1 1 -2 2 -1 0 1 1 1 2 0 2 1 0 -1 0 -2 1 0 1 0 0 2 0 1 1 1 2 0 0
-1 0 -2 1 0 1 0 0 2 1 2 1 0 2 -1 0 2 1 3 1 -2 0 -1 2 2 1 2 1 -1 2 0 -1 2 0
2 1 0 1 0 0 -1 1 -1 0 1 0 2 2 0 1 0 0 -1 0 -1 1 0 1 0 0 3 -1 2 1 0 1 0 1 -1
1 -1 -1 3 0 3 1 -2 2 -2 0 2 -1 3 1 0 1 0 1 -1 1 -1 0 1 0 1 -1 1 -1 0 0 1 0
1 1 0 2 0 0 -1 1 -1 1 0 0 1 -1 1 -1 2 0 1 1 2 2 -1 2 0 -2 1 -1 1 1 2 0 1 2
-1 2 0 -1 1 -1 2 0 1 1 1 -1 0 -2 0 0 1 0 1 2 0 2 -1 0 1 0 1 -1 0 -2 0 0 1 0
1 2 0 2 0 0 1 1 1 -1 0 -1 1 1 0 1 0 -1 3 0 2 1 1 2 1 -2 0 -1 0 0 1 0 1 2 0
2 0 -2 1 -1 1 -1 -1 -1 0 -1 1 0 1 1 0 1 -1 0 1 0 1 -2 1 -1 0 -1 -1 -1 -2 -1
0 -1 0 0 3 1 2 4 5 5 4 1 0 1 0 -2 2 -2 1 -3 -3 -4 -3 -3 2 -3 3 -1 0 -2 0 0
-1 0 -1 2 -3 3 -2 0 -6 1 -5 -2 0 -1 1 0 -2 0 -1 -1 2 -1 3 -1 -3 -1 -2 0 2
-1 3 -1 -3 0 -3 -1 0 -1 0 0 2 0 2 -1 0 0 0 -3 -3 -2 -2 0 1 0 2 -2 0 -2 0 0
-2 0 -1 -1 0 -1 0 0 3 0 3 -1 -2 0 -1 -1 -2 0 -1 -2 3 -1 3 0 -2 0 -2 -1 0 -1
0 0 2 0 3 -1 -2 0 -2 -1 0 -1 0 0 2 -1 3 0 -3 0 -3 -1 1 -1 0 0 3 0 2 -1 0 -1
0 0 -2 0 -2 -2 0 -1 0 0 2 1 1 1 2 0 2 -2 -3 -1 -2 -1 0 -1 0 0 2 1 2 -1 0 -1
0 0 -1 -1 -2 -1 0 -1 0 1 3 0 3 -2 -2 -1 -2 -1 1 0 1 -1 2 -2 1 -1 -1 -2 -1 0
2 0 3 -1 -1 -2 -1 0 1 -1 0 2 2 1 2 -1 0 -1 0 -2 -3 -3 -3 -1 0 -1 0 1 1 2 2
2 3 2 3 -1 0 -1 0 -1 -1 -1 -1 0 2 1 2 -1 0 -1 0 0 -1 -1 -1 -1 0 0 1 1 1 1 1
0 1 0 1 -2 -1 -1 0 1 1 0 2 -1 0 0 0 -2 -2 -1 -1 0 1 0 1 2 2 2 2 -2 0 -1 -1
-1 -2 -1 -2 -2 0 -1 0 -1 -2 -1 -1 1 1 2 1 1 0 1 -1 0 -2 0 -2 2 0 3 1 -3 -2
-3 -2 0 -1 0 -1 2 1 3 2 0 1 1 1 0 -2 0 -2 1 0 1 1 -1 -1 0 -2 -1 0 -1 0 0 1
0 1 -2 -1 -2 -1 0 -1 0 -1 1 1 1 1 1 0 1 0 -1 -1 -1 -1 0 -1 0 -1 2 1 1 1 0
-1 0 -1 -1 0 -1 -1 1 -2 0 -1 1 1 1 1 0 2 1 1 2 1 2 1 0 0 0 -1 -2 -4 -3 -3 0
-1 0 -1 1 1 2 2 1 2 1 2 0 -1 1 -1 -2 -3 -1 -3 1 -1 1 0 -1 -5 0 -4 1 2 1 2 0
0 1 0 -1 -6 -1 -6 -1 0 -1 0 0 -2 1 -2 -1 0 -1 0 -1 1 -1 1 -1 -3 -2 -4 -1 0
-1 0 1 -2 0 -3 -1 0 -1 0 0 5 -1 4 1 3 1 3 -2 -2 -1 -2 0 -6 1 -5 -2 0 -1 -1
0 -1 0 -2 -1 -1 -1 0 0 3 1 3 -1 0 -1 0 0 -2 -1 -3 -1 0 -1 0 0 4 1 4 1 0 2 0
0 1 -1 2 2 1 1 2 0 3 1 3 -1 -3 -2 -2 -3 -4 -3 -3 -1 0 -1 0 -1 -3 -1 -3 -1
-1 -1 0 2 3 1 4 0 1 0 2 1 0 2 0 1 0 1 1 -1 2 0 1 -4 0 -3 -1 -2 -1 -2 0 0 1
1 2 -1 -1 -2 0 -1 1 -1 2 2 2 1 3 0 2 0 2 -2 -4 -2 -3 1 -1 0 -1 -1 0 -2 1 0
-1 -1 0 0 -4 -1 -3 1 1 2 2 0 -1 0 -2 -1 -1 -2 -1 -1 1 -2 2 1 3 1 3 0 2 0 2
-2 -6 -2 -5 0 -1 0 -1 2 1 2 0 -3 -2 -2 -2 -1 -3 -1 -3 -1 1 0 1 1 3 2 3 0 2
0 2 -3 -5 -2 -4 -1 0 0 1 2 4 2 4 0 1 0 1 -3 -3 -2 -3 1 2 1 3 0 1 0 1 -1 -1
-2 -1 0 1 -1 0 1 2 0 1 -1 0 -1 0 -1 -2 -2 -3 -3 0 -2 0 0 1 0 1 1 0 2 0 2 2
2 2 0 1 0 1 2 0 3 0 -1 -2 0 -2 1 1 2 0 0 -1 0 -2 2 0 2 0 1 4 1 3 -1 1 0 0
-1 -2 0 -2 -1 0 -1 0 1 2 1 3 -1 0 0 1 3 4 3 5 -1 0 -1 1 -2 -1 -2 -1 -2 -1
-1 0 0 3 -1 3 1 0 1 0 0 1 -1 0 -2 -1 -1 -1 -1 0 0 1 3 2 2 2 -1 0 -1 0 -2 -1
-2 -2 0 1 -1 0 -2 -4 -3 -4 -1 0 0 0 1 2 0 2 -1 0 -1 0 1 2 0 2 2 2 3 2 -2 0
-1 -1 0 1 0 1 1 1 2 1 -3 -1 -2 -2 0 -2 0 -1 -2 1 -1 2 0 1 0 1 3 2 3 2 -1 0
-1 0 -1 -1 -1 -2 -1 0 -1 0 2 3 3 2 -2 -1 -2 -1 -1 1 -1 0 1 1 1 1 1 1 1 2 -3
-1 -4 0 -3 -1 -3 -2 1 1 0 2 2 1 2 0 1 1 1 0 3 1 4 2 -3 0 -2 0 2 1 2 1 -3 0
-3 0 1 1 2 0 0 2 0 1 -3 0z m1 -1 l0 0 0 0 0 -1 0 0 -1 0 0 1 0 0 1 0z m-14
-8 l3 0 -2 -1 -1 0 -2 0 -1 1 3 0z m0 -2 l1 0 0 -1 -1 -1 -2 0 -2 0 1 1 2 1 1
0z m15 -1 l1 0 0 -1 -1 0 -1 0 0 1 1 0z m-3 -1 l1 0 0 -1 0 -2 -2 0 -1 -1 -2
0 -1 0 0 1 0 1 2 1 3 1 0 0z m-6 -3 l1 -2 0 -1 -1 0 -1 1 -2 0 1 2 0 2 0 0 0
0 2 -2z m-6 1 l1 0 0 -1 -1 0 -1 0 0 1 1 0z m-2 -1 l0 0 0 0 0 -1 0 0 -1 0 0
1 0 0 1 0z m14 -2 l1 0 0 0 0 -1 -2 -1 -3 -2 0 1 0 2 2 0 2 1 0 0z m-7 -3 l0
0 0 0 0 -1 0 0 -1 0 0 1 0 0 1 0z m2 0 l0 -1 -1 -1 0 -2 -1 1 -1 0 1 1 2 2 0
0z m-14 -1 l0 0 0 -1 0 -1 -1 0 -1 0 1 1 0 1 1 0z m7 0 l3 0 -2 -1 -1 -1 -2 0
-2 0 1 1 0 1 3 0z m11 -1 l1 0 -1 -1 -1 -1 -1 0 0 1 0 1 1 1 1 -1z m77 0 l1 0
0 -1 0 0 -2 -4 -2 -3 0 1 0 1 1 3 1 3 1 0z m-93 -1 l0 0 0 0 0 -1 0 0 -1 0 0
1 0 0 1 0z m18 -1 l1 0 0 -1 0 -1 -3 -1 -2 -1 -1 -1 -1 0 2 2 3 3 1 0z m78 0
l2 0 -2 -1 -1 0 0 -1 0 -2 -2 -2 -1 -1 1 2 1 3 1 1 0 1 1 0z m-89 -1 l0 0 0 0
0 -1 0 0 -1 0 0 1 0 0 1 0z m91 -1 l0 -1 -2 -3 -1 -4 -1 0 0 1 2 3 1 4 1 0z
m-88 -1 l1 0 0 -1 -1 0 -1 0 0 1 1 0z m78 0 l0 0 0 0 0 -1 0 0 -1 0 0 1 0 0 1
0z m-69 -1 l1 0 -2 -1 -1 -2 -1 0 -1 0 1 2 1 1 2 0z m-21 -1 l0 0 0 0 0 -1 0
0 -1 0 0 1 0 0 1 0z m3 0 l0 0 0 0 0 -1 0 0 -1 0 0 1 0 0 1 0z m31 0 l0 0 -1
-2 0 -1 1 1 1 0 0 -1 -1 -1 -1 -2 0 -2 1 0 1 1 -1 -2 0 -2 -1 -1 -1 0 1 2 0 3
-1 -2 -1 -1 0 1 0 1 -1 2 0 2 1 -2 1 -1 0 2 1 1 -1 1 -1 0 1 2 1 1 1 0z m79
-1 l0 0 0 0 0 -1 0 0 -1 0 0 1 0 0 1 0z m25 0 l0 0 0 0 0 -1 0 0 -1 0 0 1 0 0
1 0z m18 0 l0 0 0 0 0 -1 0 0 -1 0 0 1 0 0 1 0z m-135 -1 l1 0 0 -1 -1 -1 -1
0 -1 0 0 1 0 1 2 0z m131 -1 l1 -2 0 -2 0 -1 -1 1 -1 2 0 2 0 2 1 -2z m-148
-1 l0 0 -1 -1 -1 -1 -1 0 -1 0 0 1 0 1 2 0 2 1 0 -1z m14 1 l0 0 0 0 0 -1 0 0
-1 0 0 1 0 0 1 0z m92 -1 l0 -1 0 -1 -1 -1 0 2 0 3 1 -2z m5 0 l0 -1 0 -1 -1
-1 0 2 0 3 1 -2z m23 1 l0 -1 0 -1 -1 -1 0 1 0 2 1 0z m10 0 l0 -1 0 -1 -1 0
0 1 0 1 1 0z m8 -1 l1 0 0 -1 0 -1 0 0 -1 0 0 1 -1 1 1 0z m-143 -1 l0 -1 0
-1 -1 0 0 1 0 1 1 0z m9 0 l1 0 0 -1 1 0 -2 -2 -1 -1 -2 0 -1 0 1 1 0 1 1 -1
1 0 0 1 0 2 1 0z m4 0 l1 0 0 -1 -1 0 -1 0 0 1 1 0z m10 0 l0 0 0 0 0 -1 0 0
-1 0 0 1 0 0 1 0z m92 0 l1 0 0 -4 0 -3 -1 0 0 1 0 3 -1 3 1 0z m-16 -1 l0 0
0 0 0 -1 0 0 -1 0 0 1 0 0 1 0z m37 0 l0 0 0 0 0 -1 0 0 -1 0 0 1 0 0 1 0z
m-123 -2 l0 0 -1 -2 -2 -1 -1 1 0 0 1 2 2 1 1 -1z m-12 0 l0 0 0 0 0 -1 0 0
-1 0 0 1 0 0 1 0z m27 0 l0 0 0 0 0 -1 0 0 -1 0 0 1 0 0 1 0z m57 -1 l0 -2 -1
-1 -1 0 0 -3 0 -2 1 2 0 2 1 0 1 1 0 2 0 2 1 0 1 0 -1 -1 0 -1 2 -2 2 -2 -1
-3 0 -4 1 0 1 1 0 -1 0 -2 -3 0 -4 -1 0 2 0 3 -1 -3 -1 -2 -1 0 0 0 0 3 1 3
-2 -1 -1 0 0 3 1 3 2 1 1 1 0 2 0 2 1 -2z m38 1 l0 -1 0 -1 -1 0 0 1 0 1 1 0z
m20 0 l0 0 0 0 0 -1 0 0 -1 0 0 1 0 0 1 0z m-146 -1 l0 0 0 0 0 -1 0 0 -1 0 0
1 0 0 1 0z m18 0 l1 0 0 -2 1 -2 -3 -2 -2 -2 -1 1 0 0 1 1 2 2 0 0 0 1 -2 -1
-1 0 1 2 2 2 1 0z m87 0 l0 -1 0 -1 -1 0 0 1 0 1 1 0z m-100 -1 l1 0 0 -1 -1
0 -1 0 0 1 1 0z m23 -2 l2 -2 -1 -1 0 -1 -1 1 0 2 -2 -1 -1 0 1 2 1 2 1 -2z
m67 2 l0 -1 0 -1 -1 0 0 1 0 1 1 0z m2 0 l1 0 0 -1 0 -1 0 0 -1 0 0 1 -1 1 1
0z m-103 -1 l0 0 0 -1 0 -1 -1 0 -1 0 1 1 0 1 1 0z m121 0 l1 0 0 -1 0 -1 -2
0 -1 0 1 1 0 1 1 0z m-112 -1 l0 0 0 0 0 -1 0 0 -1 0 0 1 0 0 1 0z m4 0 l0 0
0 -1 0 -1 -6 -5 -5 -4 1 2 1 2 4 3 4 4 1 0z m75 0 l1 0 0 -1 0 -1 -1 -2 -1 -1
0 2 0 3 1 0z m62 0 l1 0 0 -1 -1 0 -1 0 0 1 1 0z m-8 -1 l1 0 0 -1 0 -1 -1 0
-1 -1 0 1 0 2 1 0z m3 0 l2 -1 0 -2 0 -1 -1 1 0 2 -1 0 -1 1 1 0z m-41 -2 l0
-1 0 -1 -1 0 0 1 0 1 1 0z m2 0 l1 -1 0 -1 0 -1 -1 1 -1 0 0 1 0 1 1 0z m28
-1 l2 -2 0 -1 0 -1 -2 2 -2 1 0 1 0 1 2 -1z m-33 -1 l0 0 0 0 0 -1 0 0 -1 0 0
1 0 0 1 0z m25 0 l1 -1 0 -1 0 -1 -1 1 -1 0 0 1 0 1 1 0z m-39 -2 l1 -1 -1 -3
0 -4 -1 0 -1 1 -2 0 -2 1 0 1 0 1 2 -1 1 -1 1 1 1 2 0 2 0 2 1 -1z m45 1 l0 0
0 0 0 -1 0 0 -1 0 0 1 0 0 1 0z m-15 -1 l0 0 0 0 0 -1 0 0 -1 0 0 1 0 0 1 0z
m2 0 l0 0 0 0 0 -1 0 0 -1 0 0 1 0 0 1 0z m25 0 l1 0 1 -1 1 -2 -1 0 -2 0 0 2
0 1 0 0z m-38 -2 l2 -2 -1 -3 0 -2 -1 2 -1 2 0 2 0 2 1 -1z m24 1 l0 0 0 0 0
-1 0 0 -1 0 0 1 0 0 1 0z m-72 -1 l1 0 0 -1 0 -2 -2 -1 -2 -1 0 1 0 2 1 1 1 1
1 0z m32 0 l0 -1 0 -1 -1 0 0 1 0 1 1 0z m-41 -3 l0 -1 0 -2 -1 -1 -1 0 -1 1
1 2 1 2 1 -1z m54 0 l0 0 0 0 0 -1 0 0 -1 0 0 1 0 0 1 0z m10 0 l0 0 0 0 0 -1
0 0 -1 0 0 1 0 0 1 0z m29 0 l1 -1 0 -2 0 -1 -1 1 -1 2 0 0 0 1 1 0z m-137 -1
l0 0 0 0 0 -1 0 0 -1 0 0 1 0 0 1 0z m46 0 l1 0 0 -1 0 -1 -1 -2 -1 -2 0 1 -1
1 1 2 0 2 1 0z m41 0 l2 0 0 -1 0 -1 2 1 1 0 0 -1 0 -1 -1 0 -1 -1 -2 2 -2 2
1 0z m-48 -2 l1 -1 -1 -2 -2 -1 0 2 0 2 1 0 0 1 1 -1z m-16 0 l0 0 0 -1 0 -1
-1 0 -1 0 1 1 0 1 1 0z m72 0 l0 -1 0 -1 -1 0 0 1 0 1 1 0z m4 0 l0 -1 0 -1
-1 -1 0 1 0 2 1 0z m7 0 l1 0 0 -1 -1 0 -1 0 0 1 1 0z m-81 -2 l1 0 0 -1 0 0
-2 -4 -2 -3 -1 0 0 1 2 3 2 4 0 0z m17 -1 l1 -1 0 -1 0 -1 -1 1 -1 0 0 2 0 2
1 -2z m9 1 l1 0 0 -1 0 -1 -1 0 -1 0 0 1 0 1 1 0z m9 0 l0 0 0 0 0 -1 0 0 -1
0 0 1 0 0 1 0z m16 -1 l1 -1 1 -1 2 0 0 1 1 2 0 -2 0 -1 1 1 1 0 1 -1 1 -1 0
-1 0 -1 -1 0 -2 1 0 -1 0 -1 -1 2 -1 2 0 -2 0 -1 -1 1 -2 0 0 -2 -1 -2 0 2 0
3 -1 0 -1 0 1 2 0 2 1 -1z m30 1 l0 -1 0 -1 -1 0 0 1 0 1 1 0z m-4 -1 l1 0 1
-1 0 -1 0 0 -1 0 0 1 -1 1 0 0z m-66 -1 l0 -1 -1 -2 -1 -2 -1 0 0 1 1 2 1 2 1
0z m22 0 l1 0 0 -1 0 -2 -1 -1 -1 0 -1 0 0 1 0 1 1 2 1 0z m51 0 l0 -1 0 -1
-1 0 0 1 0 1 1 0z m5 0 l0 -1 0 -1 -1 0 0 1 0 1 1 0z m-63 -1 l0 0 0 0 0 -1 0
0 -1 0 0 1 0 0 1 0z m77 0 l0 0 0 0 0 -1 0 0 -1 0 0 1 0 0 1 0z m-100 -1 l0
-1 -1 -2 -1 -2 -1 0 -1 0 2 3 1 2 1 0z m60 0 l2 -1 0 -3 0 -3 -1 0 -1 0 0 2 0
3 -1 -2 -1 -1 0 2 0 3 2 0z m-48 -1 l0 0 0 -1 0 -1 -1 0 -1 0 1 1 0 1 1 0z
m54 -1 l0 -1 2 1 2 0 0 -1 0 -1 -1 -2 -1 -1 0 1 0 2 -1 0 -1 -1 -1 1 -1 1 1 1
0 1 1 -1z m8 -1 l0 -2 1 -1 2 0 -1 -3 0 -2 -1 -1 -1 0 -1 4 0 4 -1 -1 -1 -1 0
1 0 2 1 1 2 1 0 -2z m-34 1 l0 -1 0 -1 -1 0 0 1 0 1 1 0z m-32 -1 l1 0 0 -1
-1 0 -1 0 0 1 1 0z m25 0 l0 0 0 0 0 -1 0 0 -1 0 0 1 0 0 1 0z m-15 -1 l0 0 0
0 0 -1 0 0 -1 0 0 1 0 0 1 0z m65 -1 l1 0 0 -1 0 -2 -1 0 -2 0 0 1 -1 1 1 0 0
1 2 0z m5 0 l0 0 0 0 0 -1 0 0 -1 0 0 1 0 0 1 0z m4 0 l1 0 0 -2 1 -1 -1 1 -1
0 0 1 0 1 0 0z m-73 -1 l1 0 0 -1 0 -1 2 0 2 -1 -4 0 -3 1 0 0 0 1 1 0 0 1 1
0z m60 0 l0 -1 0 -1 -1 0 0 1 0 1 1 0z m-48 -1 l1 0 0 -1 -1 0 -1 0 0 1 1 0z
m21 0 l0 -1 0 -1 -1 0 0 1 0 1 1 0z m9 -1 l1 0 -1 -1 0 -2 -1 0 0 0 0 2 0 1 1
0z m4 -1 l1 0 0 -2 0 -3 -1 0 -1 0 0 3 -1 2 2 0z m6 0 l1 0 0 -1 0 -1 -1 0 -1
-1 0 1 0 2 1 0z m-19 -2 l0 0 0 0 0 -1 0 0 -1 0 0 1 0 0 1 0z m9 -2 l0 0 0 0
0 -1 0 0 -1 0 0 1 0 0 1 0z m-65 -1 l0 0 0 -1 0 -1 -1 0 -1 0 1 1 0 1 1 0z
m50 0 l1 0 0 -1 0 -1 -1 0 -1 0 0 1 0 1 1 0z m12 0 l0 0 0 0 0 -1 0 0 -1 0 0
1 0 0 1 0z m-47 -6 l0 0 0 0 0 -1 0 0 -1 0 0 1 0 0 1 0z"/>
<path d="M151 78 l-1 0 -1 -2 0 -3 1 -2 2 -1 0 1 0 2 1 2 0 2 -1 -2 -2 -2 1 2
0 3 0 0z"/>
<path d="M79 121 l-1 0 0 -1 1 0 1 0 0 1 -1 0z"/>
<path d="M92 120 l-1 0 0 -1 1 0 1 0 0 1 -1 0z"/>
<path d="M120 120 l-1 0 -3 -1 -2 -1 2 0 2 0 1 1 2 1 -1 0z"/>
<path d="M217 120 l0 0 -2 -1 -1 -1 0 0 1 -1 1 1 1 2 0 0z"/>
<path d="M98 119 l0 0 -2 -1 -1 -1 1 0 1 0 1 1 0 1 0 0z"/>
<path d="M126 119 l-1 0 0 -1 -1 -1 1 0 1 0 1 1 0 1 -1 0z"/>
<path d="M79 118 l-1 0 0 -1 0 -1 2 1 3 0 -2 -1 -2 -2 1 -2 1 -3 3 2 4 1 0 1
0 1 -2 -1 -2 -1 -1 0 0 0 2 2 2 2 -3 1 -3 1 -2 0z"/>
<path d="M141 118 l-1 0 0 0 0 -1 1 0 0 0 0 1 0 0 0 0z"/>
<path d="M93 117 l-1 0 0 -1 1 0 1 0 0 1 -1 0z"/>
<path d="M121 117 l-1 0 -4 -2 -4 -1 3 1 4 0 1 1 2 1 -1 0z"/>
<path d="M163 117 l-1 0 -2 -2 -1 -2 2 1 3 2 0 1 0 0 -1 0z"/>
<path d="M168 117 l-1 0 -2 -2 -1 -2 2 1 3 2 0 1 0 0 -1 0z"/>
<path d="M176 117 l-1 0 -2 -3 -2 -2 2 1 2 1 0 2 1 1 0 0z"/>
<path d="M217 117 l-1 0 -1 -1 0 -1 0 -1 1 0 1 1 1 2 -1 0z"/>
<path d="M99 116 l0 0 -3 -2 -3 -1 0 -1 0 0 3 2 3 1 0 1 0 0 0 0z"/>
<path d="M171 116 l-1 0 -1 -2 -1 -1 2 1 2 1 0 1 0 0 -1 0z"/>
<path d="M144 113 l-1 0 1 -1 2 -1 1 0 1 0 -2 1 -1 1 -1 0z"/>
<path d="M216 113 l-2 0 1 -1 1 -1 1 1 1 1 -2 0z"/>
<path d="M112 112 l0 0 -2 -1 -1 -1 1 0 1 0 1 1 0 1 0 0z"/>
<path d="M117 112 l-1 0 0 -1 1 0 1 0 0 1 -1 0z"/>
<path d="M89 110 l0 1 -4 -3 -4 -2 1 0 2 0 -2 -1 -1 -2 1 0 2 0 3 2 3 2 0 1 0
0 -2 -1 -2 -1 -1 0 0 0 2 2 2 2 0 0z"/>
<path d="M106 111 l-1 0 0 0 0 -1 1 0 0 0 0 1 0 0 0 0z"/>
<path d="M121 111 l-1 0 0 -1 -1 -2 1 0 1 0 0 2 1 1 -1 0z"/>
<path d="M98 108 l-1 0 -1 -2 -1 -1 1 1 2 1 0 1 0 0 0 0z"/>
<path d="M104 108 l-1 0 -2 -1 -1 -2 0 0 1 -1 1 2 2 2 0 0z"/>
<path d="M114 108 l-1 0 -1 -1 0 -2 0 -1 1 -1 1 2 1 3 -1 0z"/>
<path d="M125 108 l-1 0 -1 -2 -1 -2 1 0 1 -1 0 2 1 2 0 1z"/>
<path d="M117 107 l-1 0 0 -2 -1 -1 0 -1 0 0 1 1 1 2 0 1z"/>
<path d="M216 106 l-2 1 1 -2 0 -1 1 0 1 0 0 1 1 1 -2 0z"/>
<path d="M90 105 l0 0 -4 -2 -3 -1 0 -1 0 0 1 -2 1 -1 2 1 3 2 0 2 0 2 0 0z"/>
<path d="M119 105 l-1 0 0 -1 -1 0 0 -2 0 -1 1 1 1 2 0 1z"/>
<path d="M103 104 l-1 0 0 -1 -1 -1 1 0 1 0 1 1 0 1 -1 0z"/>
<path d="M96 103 l-1 0 -1 -1 0 -1 1 0 1 1 0 1 0 0 0 0z"/>
<path d="M121 103 l-1 0 -1 -1 0 -2 1 -1 1 -2 1 2 1 3 -1 -2 -2 -1 0 2 1 2 0
0z"/>
<path d="M213 102 l-1 1 1 -2 1 -2 1 0 1 0 -1 1 0 2 -2 0z"/>
<path d="M177 102 l-1 0 -2 -2 -1 -2 2 1 2 1 0 1 0 1 0 0z"/>
<path d="M181 102 l-1 0 -2 -2 -1 -2 2 1 2 1 0 1 0 1 0 0z"/>
<path d="M172 101 l-1 0 0 -1 -1 -1 1 1 2 0 0 1 0 0 -1 0z"/>
<path d="M184 101 l-1 0 -2 -2 -1 -2 2 1 3 2 0 1 0 0 -1 0z"/>
<path d="M112 100 l-1 0 0 0 0 -1 1 0 0 0 0 1 0 0 0 0z"/>
<path d="M126 100 l-1 0 -1 -2 -1 -2 0 -1 1 0 1 2 1 2 0 1z"/>
<path d="M189 100 l-1 0 0 -1 -1 -1 1 1 2 0 0 1 0 0 -1 0z"/>
<path d="M212 99 l-1 2 0 -3 0 -2 1 0 1 -1 0 1 0 2 -1 1z"/>
<path d="M98 99 l-1 0 -1 -1 -1 -2 0 -1 1 0 1 2 1 1 0 1z"/>
<path d="M130 99 l-1 0 0 -1 0 -1 1 0 0 1 0 1z"/>
<path d="M186 98 l-1 0 0 0 0 -1 1 0 0 0 0 1 0 0 0 0z"/>
<path d="M100 96 l-1 1 0 -1 -1 -1 0 -1 1 0 1 0 0 1 0 1z"/>
<path d="M104 96 l-1 0 -1 -2 -2 -2 0 -1 1 0 2 2 1 2 0 1z"/>
<path d="M109 95 l-1 1 -2 -4 -3 -3 1 0 1 1 2 2 2 3 0 0z"/>
<path d="M116 96 l-1 0 0 0 0 -1 1 0 0 0 0 1 0 0 0 0z"/>
<path d="M114 95 l-1 0 0 0 0 -1 1 0 0 0 0 1 0 0 0 0z"/>
<path d="M118 95 l-1 0 0 0 0 -1 1 0 0 0 0 1 0 0 0 0z"/>
<path d="M126 95 l-1 0 0 -2 -1 -1 1 1 2 1 0 1 0 0 -1 0z"/>
<path d="M130 94 l-1 0 -2 -2 -1 -2 2 1 2 2 0 1 0 0 0 0z"/>
<path d="M133 94 l-1 0 -2 -3 -2 -2 0 -1 0 -1 1 0 2 0 -1 1 0 1 1 3 2 2 0 0z"/>
<path d="M117 93 l-1 0 -1 -1 0 -1 1 0 1 1 0 1 0 0 0 0z"/>
<path d="M120 93 l-1 0 -1 -2 -1 -1 0 0 1 -1 1 2 1 2 0 0z"/>
<path d="M92 92 l-1 0 0 -1 1 0 1 0 0 1 -1 0z"/>
<path d="M134 92 l-1 0 -1 -2 -1 -1 1 -1 1 0 -1 -1 0 -2 2 0 2 -1 0 -1 0 -1 2
2 1 3 0 0 0 1 -2 2 -2 2 -1 0z m0 -2 l0 0 0 0 0 -1 0 0 -1 0 0 1 0 0 1 0z"/>
<path d="M110 91 l-1 0 -1 -2 -2 -2 0 -1 1 0 2 2 1 2 0 1z"/>
<path d="M113 91 l-1 0 -2 -4 -2 -3 0 -1 0 0 2 1 1 1 1 3 1 2 0 1z"/>
<path d="M122 90 l-1 0 -1 -1 0 -1 1 0 1 1 0 1 0 0 0 0z"/>
<path d="M123 88 l-1 0 -1 -1 0 -1 1 0 1 1 0 1 0 0 0 0z"/>
<path d="M99 87 l-1 0 -2 -3 -2 -3 0 0 0 -1 1 0 1 0 2 4 2 3 -1 0z"/>
<path d="M118 87 l-1 0 0 -2 0 -1 1 1 0 1 0 1z"/>
<path d="M126 85 l-1 1 -1 -2 -2 -2 0 -1 0 -1 1 -1 1 0 0 1 -1 1 2 2 1 2 0 0z"/>
<path d="M102 85 l-1 0 -2 -3 -3 -3 1 -1 0 0 2 2 1 2 1 1 1 2 0 0z"/>
<path d="M114 85 l-1 0 -1 -1 -1 -2 0 -1 1 0 1 2 1 1 0 1z"/>
<path d="M120 84 l-1 0 0 -1 0 -1 1 0 1 0 0 1 0 1 -1 0z"/>
<path d="M104 83 l-1 0 -1 -2 -2 -2 0 0 0 -1 1 0 1 0 1 3 2 2 -1 0z"/>
<path d="M116 82 l0 0 0 -1 -1 0 0 -4 0 -4 1 0 1 0 0 5 0 4 -1 0z"/>
<path d="M128 82 l-1 0 -1 -1 0 -1 1 0 1 1 0 1 0 0 0 0z"/>
<path d="M132 82 l-1 0 0 -2 -1 -1 0 -1 0 -1 1 2 2 2 0 0 0 1 -1 0z"/>
<path d="M46 81 l-4 0 2 -1 2 0 2 0 2 1 -4 0z"/>
<path d="M136 81 l-1 0 -1 -2 -1 -2 0 -1 1 0 1 2 1 3 0 0z"/>
<path d="M35 80 l-1 0 0 0 0 -1 1 0 0 0 0 1 0 0 0 0z"/>
<path d="M110 80 l-1 0 0 -2 0 -1 1 1 0 1 0 1z"/>
<path d="M128 79 l-1 0 0 -1 -1 -1 1 0 1 0 0 1 0 1 0 0z"/>
<path d="M139 79 l-1 0 0 -1 -1 -2 1 0 1 0 0 2 0 1 0 0z"/>
<path d="M113 78 l-1 0 0 -1 -1 -1 1 0 1 0 0 1 0 1 0 0z"/>
<path d="M121 78 l-1 0 -1 -1 -1 -2 0 -1 1 -1 1 2 1 3 0 0z"/>
<path d="M47 77 l-5 0 2 -1 3 0 3 0 3 1 -6 0z"/>
<path d="M32 76 l-1 0 0 0 0 -1 1 0 0 0 0 1 0 0 0 0z"/>
<path d="M36 76 l-2 0 1 -1 1 0 1 0 2 1 -3 0z"/>
<path d="M123 76 l-1 0 0 -2 -1 -1 0 -1 1 0 1 2 1 2 -1 0z"/>
<path d="M109 75 l-1 0 0 0 0 -1 1 0 0 0 0 1 0 0 0 0z"/>
<path d="M50 74 l0 0 -6 -1 -6 -1 6 0 6 0 1 1 0 1 -1 0z"/>
<path d="M111 74 l-1 0 0 0 0 -1 1 0 0 0 0 1 0 0 0 0z"/>
<path d="M137 74 l-1 0 0 -1 1 0 1 0 0 1 -1 0z"/>
<path d="M133 73 l0 0 -1 -2 0 -1 -1 -1 0 -1 1 0 1 0 0 2 1 2 -1 1z"/>
<path d="M32 72 l-1 0 0 0 0 -1 1 0 0 0 0 1 0 0 0 0z"/>
<path d="M47 71 l-5 0 2 -1 3 0 3 0 3 1 -6 0z"/>
<path d="M51 69 l-2 0 -4 -1 -3 -1 3 0 3 0 2 1 3 1 -2 0z"/>
<path d="M38 67 l-2 0 1 -1 1 0 1 0 2 1 -3 0z"/>
<path d="M127 66 l-1 2 0 -3 0 -2 1 1 0 1 0 1z"/>
<path d="M50 66 l-4 0 2 -1 2 0 2 0 3 1 -5 0z"/>
<path d="M55 62 l-2 0 -6 -1 -6 -1 5 0 6 0 2 1 3 1 -2 0z"/>
<path d="M55 60 l-1 0 -2 -1 -1 -1 3 0 3 1 0 0 0 1 -2 0z"/>
<path d="M45 59 l-3 0 1 -1 2 0 2 0 2 1 -4 0z"/>
<path d="M50 59 l-1 0 0 0 0 -1 1 0 0 0 0 1 0 0 0 0z"/>
<path d="M44 57 l-1 0 0 0 0 -1 1 0 0 0 0 1 0 0 0 0z"/>
<path d="M57 54 l-5 0 -4 -1 -4 -1 4 0 5 0 5 1 5 1 -6 0z"/>
<path d="M45 51 l-4 0 2 -1 2 0 2 0 2 1 -4 0z"/>
<path d="M52 49 l-1 0 0 -1 1 0 1 0 0 1 -1 0z"/>
<path d="M49 46 l-2 0 1 -1 1 0 1 0 2 1 -3 0z"/>
<path d="M192 45 l-3 0 1 -1 2 0 2 0 2 1 -4 0z"/>
<path d="M64 44 l0 0 -3 -1 -3 -1 3 0 3 0 0 1 0 1 0 0z"/>
<path d="M186 44 l-2 0 1 -1 1 0 1 0 2 1 -3 0z"/>
<path d="M72 42 l-1 0 0 0 0 -1 1 0 0 0 0 1 0 0 0 0z"/>
<path d="M74 42 l-1 0 0 0 0 -1 1 0 0 0 0 1 0 0 0 0z"/>
<path d="M61 41 l-7 0 3 -1 4 0 4 0 4 1 -8 0z"/>
<path d="M181 40 l-1 0 0 0 0 -1 1 0 0 0 0 1 0 0 0 0z"/>
<path d="M185 40 l-3 0 0 0 0 -1 3 0 2 -1 0 1 0 1 -2 0z"/>
<path d="M181 37 l0 0 -6 -1 -5 -1 6 0 6 0 0 1 -1 1 0 0z"/>
<path d="M167 36 l-1 0 0 0 0 -1 1 0 0 0 0 1 0 0 0 0z"/>
<path d="M157 34 l-7 0 7 -1 7 -1 -3 0 -2 -1 -5 0 -5 -1 6 0 6 0 1 1 2 0 0 2
0 1 -7 0z"/>
<path d="M117 30 l-10 0 5 -1 5 0 5 0 6 1 -11 0z"/>
<path d="M129 30 l-1 0 0 0 0 -1 1 0 0 0 0 1 0 0 0 0z"/>
<path d="M142 30 l-1 0 0 0 0 -1 1 0 0 0 0 1 0 0 0 0z"/>
<path d="M144 30 l-1 0 0 0 0 -1 1 0 0 0 0 1 0 0 0 0z"/>
<path d="M96 29 l-6 0 3 -1 3 0 3 0 4 1 -7 0z"/>
<path d="M180 29 l0 0 -7 -1 -6 -1 6 0 6 0 1 1 0 1 0 0z"/>
<path d="M80 28 l-5 0 2 -1 3 0 2 0 3 1 -5 0z"/>
<path d="M165 28 l-1 0 0 0 0 -1 1 0 0 0 0 1 0 0 0 0z"/>
<path d="M69 27 l-3 0 1 -1 2 0 1 0 2 1 -3 0z"/>
<path d="M146 27 l-11 0 5 -1 6 0 5 0 6 1 -11 0z"/>
<path d="M162 27 l-1 0 0 0 0 -1 1 0 0 0 0 1 0 0 0 0z"/>
<path d="M125 26 l-5 0 2 -1 3 0 2 0 3 1 -5 0z"/>
<path d="M111 25 l-4 0 2 -1 2 0 2 0 2 1 -4 0z"/>
<path d="M101 24 l-2 0 1 -1 1 0 1 0 2 1 -3 0z"/>
<path d="M91 23 l-2 0 1 -1 1 0 1 0 2 1 -3 0z"/>
<path d="M95 23 l-1 0 0 0 0 -1 1 0 0 0 0 1 0 0 0 0z"/>
<path d="M82 22 l-1 0 0 0 0 -1 1 0 0 0 0 1 0 0 0 0z"/>
<path d="M168 22 l-4 0 2 -1 2 0 2 0 2 1 -4 0z"/>
<path d="M158 21 l-6 0 3 -1 3 0 3 0 3 1 -6 0z"/>
<path d="M140 20 l-7 0 3 -1 4 0 4 0 4 1 -8 0z"/>
<path d="M122 19 l-7 0 3 -1 3 0 4 0 4 1 -7 0z"/>
<path d="M109 18 l-4 0 2 -1 2 0 2 0 2 1 -4 0z"/>
<path d="M99 17 l-2 0 1 -1 1 0 1 0 2 1 -3 0z"/>
<path d="M149 14 l-3 0 1 -1 2 0 2 0 2 1 -4 0z"/>
<path d="M139 13 l-5 0 2 -1 3 0 2 0 3 1 -5 0z"/>
</g>
</svg>
