<?xml version="1.0" encoding="utf-8"?>
<!-- Generator: Adobe Illustrator 19.1.0, SVG Export Plug-In . SVG Version: 6.00 Build 0)  -->
<svg version="1.1" xmlns="http://www.w3.org/2000/svg" xmlns:xlink="http://www.w3.org/1999/xlink" x="0px" y="0px"
	 viewBox="0 0 1391.8 498.4" style="enable-background:new 0 0 1391.8 498.4;" xml:space="preserve">
<style type="text/css">
	.st0{opacity:0.1;}
	.st1{opacity:0.3;}
	.st2{fill:#FFFFFF;}
</style>
<g id="glot.io-logo_copy" class="st0">
</g>
<g id="glot.io-logo" class="st1">
	<g id="g_2_">
		<path d="M483.1,222.1c0,38.6-23.7,67-59.5,78.1c-10.2,3.3-10.5,7.9-10.5,14.9c0,7,0.2,11.6,10.5,14.9
			c36.7,11.6,59.5,39.5,59.5,78.1c0,51.2-40,83.7-99.1,83.7c-59.1,0-99.5-32.6-99.5-83.7c0-41.4,26.5-70.7,68.4-80.5
			c-2.3-3.8-3-7-3-12.6c0-5.6,0.9-9.4,3-12.6c-41.9-9.8-68.4-39.1-68.4-80.5c0-51.2,40.5-83.7,99.5-83.7c28.8,0,68.8,6,99.1,14
			V222.1z M384,190.9c-22.8,0-37.2,12.1-37.2,31.2s14.4,31.2,37.2,31.2s37.2-12.1,37.2-31.2v-26.5C410.5,192.8,397,190.9,384,190.9z
			 M384,377c-22.8,0-37.2,12.1-37.2,31.2s14.4,31.2,37.2,31.2s37.2-12.1,37.2-31.2S406.8,377,384,377z"/>
	</g>
	<g id="l_2_">
		<path d="M561.6,365.7c-39.1,0-61.9-19.1-61.9-61.9V45.7h61.9v251.6c0,11.6,4.7,15.8,15.3,15.8c7.9,0,15.8-2.3,21.9-4.7v51.2
			C589,362.9,574.2,365.7,561.6,365.7z"/>
	</g>
	<g id="o_5_">
		<path d="M715.8,366.7c-70.2,0-111.6-47-111.6-114.4c0-67.9,41.4-114.9,111.6-114.9c70.7,0,111.6,47,111.6,114.9
			C827.4,319.7,786.5,366.7,715.8,366.7z M715.8,189.9c-29.3,0-46.5,21.4-46.5,62.3c0,40.5,17.2,61.9,46.5,61.9
			c29.8,0,46.5-21.4,46.5-61.9C762.3,211.3,745.5,189.9,715.8,189.9z"/>
	</g>
	<path id="t_2_" d="M967.4,196.8v-53.9h-44.4V77.7l-61.9,9v56.2h-33v53.9h33v107c0,42.8,22.8,61.9,61.9,61.9c12.6,0,27.4-2.8,37.2-6
		v-51.2c-6,2.3-14,4.7-21.9,4.7c-10.7,0-15.3-4.2-15.3-15.8V196.8H967.4z"/>
	<g id="dot_2_">
		<path d="M1012.5,365.7c-20.5,0-37.2-16.3-37.2-37.2c0-20.5,16.7-37.2,37.2-37.2c20.9,0,37.2,16.7,37.2,37.2
			C1049.7,349.4,1033.5,365.7,1012.5,365.7z"/>
	</g>
	<g id="i_2_">
		<path d="M1098,123.5c20.9,0,37.2-16.3,37.2-37.2c0-20.5-16.3-37.2-37.2-37.2c-20.5,0-37.2,16.7-37.2,37.2
			C1060.8,107.2,1077.5,123.5,1098,123.5z"/>
		<rect x="1069" y="142.9" width="61.3" height="216.8"/>
	</g>
	<g id="o_4_">
		<path d="M1271.5,365.7c-70.2,0-111.6-47-111.6-114.4c0-67.9,41.4-114.9,111.6-114.9c70.7,0,111.6,47,111.6,114.9
			C1383.1,318.7,1342.2,365.7,1271.5,365.7z M1271.5,188.9c-29.3,0-46.5,21.4-46.5,62.3c0,40.5,17.2,61.9,46.5,61.9
			c29.8,0,46.5-21.4,46.5-61.9C1318,210.3,1301.3,188.9,1271.5,188.9z"/>
	</g>
	<path id="icon_2_" d="M164.3,85.5H27v262.7h196.7V151.5L164.3,85.5z M167.7,236.9l-86,48.7v-38.3l43-23l-43-22v-40l86,46.7V236.9z"
		/>
</g>
<g id="glot.io-logo_copy_2">
	<g id="g_1_">
		<path class="st2" d="M473.1,208.1c0,38.6-23.7,67-59.5,78.1c-10.2,3.3-10.5,7.9-10.5,14.9c0,7,0.2,11.6,10.5,14.9
			c36.7,11.6,59.5,39.5,59.5,78.1c0,51.2-40,83.7-99.1,83.7c-59.1,0-99.5-32.6-99.5-83.7c0-41.4,26.5-70.7,68.4-80.5
			c-2.3-3.8-3-7-3-12.6c0-5.6,0.9-9.4,3-12.6c-41.9-9.8-68.4-39.1-68.4-80.5c0-51.2,40.5-83.7,99.5-83.7c28.8,0,68.8,6,99.1,14
			V208.1z M374,176.9c-22.8,0-37.2,12.1-37.2,31.2s14.4,31.2,37.2,31.2s37.2-12.1,37.2-31.2v-26.5C400.5,178.8,387,176.9,374,176.9z
			 M374,363c-22.8,0-37.2,12.1-37.2,31.2s14.4,31.2,37.2,31.2s37.2-12.1,37.2-31.2S396.8,363,374,363z"/>
	</g>
	<g id="l_1_">
		<path class="st2" d="M551.6,351.7c-39.1,0-61.9-19.1-61.9-61.9V31.7h61.9v251.6c0,11.6,4.7,15.8,15.3,15.8
			c7.9,0,15.8-2.3,21.9-4.7v51.2C579,348.9,564.2,351.7,551.6,351.7z"/>
	</g>
	<g id="o_2_">
		<path class="st2" d="M705.8,352.7c-70.2,0-111.6-47-111.6-114.4c0-67.9,41.4-114.9,111.6-114.9c70.7,0,111.6,47,111.6,114.9
			C817.4,305.7,776.5,352.7,705.8,352.7z M705.8,175.9c-29.3,0-46.5,21.4-46.5,62.3c0,40.5,17.2,61.9,46.5,61.9
			c29.8,0,46.5-21.4,46.5-61.9C752.3,197.3,735.5,175.9,705.8,175.9z"/>
	</g>
	<path id="t_1_" class="st2" d="M957.4,182.8v-53.9h-44.4V63.7l-61.9,9v56.2h-33v53.9h33v107c0,42.8,22.8,61.9,61.9,61.9
		c12.6,0,27.4-2.8,37.2-6v-51.2c-6,2.3-14,4.7-21.9,4.7c-10.7,0-15.3-4.2-15.3-15.8V182.8H957.4z"/>
	<g id="dot_1_">
		<path class="st2" d="M1002.5,351.7c-20.5,0-37.2-16.3-37.2-37.2c0-20.5,16.7-37.2,37.2-37.2c20.9,0,37.2,16.7,37.2,37.2
			C1039.7,335.4,1023.5,351.7,1002.5,351.7z"/>
	</g>
	<g id="i_1_">
		<path class="st2" d="M1088,109.5c20.9,0,37.2-16.3,37.2-37.2c0-20.5-16.3-37.2-37.2-37.2c-20.5,0-37.2,16.7-37.2,37.2
			C1050.8,93.2,1067.5,109.5,1088,109.5z"/>
		<rect x="1059" y="128.9" class="st2" width="61.3" height="216.8"/>
	</g>
	<g id="o_1_">
		<path class="st2" d="M1261.5,351.7c-70.2,0-111.6-47-111.6-114.4c0-67.9,41.4-114.9,111.6-114.9c70.7,0,111.6,47,111.6,114.9
			C1373.1,304.7,1332.2,351.7,1261.5,351.7z M1261.5,174.9c-29.3,0-46.5,21.4-46.5,62.3c0,40.5,17.2,61.9,46.5,61.9
			c29.8,0,46.5-21.4,46.5-61.9C1308,196.3,1291.3,174.9,1261.5,174.9z"/>
	</g>
	<path id="icon_1_" class="st2" d="M154.3,71.5H17v262.7h196.7V137.5L154.3,71.5z M157.7,222.9l-86,48.7v-38.3l43-23l-43-22v-40
		l86,46.7V222.9z"/>
</g>
</svg>
