<svg xmlns="http://www.w3.org/2000/svg" viewBox="0 0 341 341"><ellipse cx="105" cy="106.6" fill="#fff" stroke="#fff" rx="38.6" ry="22.2"/><ellipse cx="237.2" cy="113.1" fill="#fff" stroke="#fff" rx="43.4" ry="22.9"/><path fill="#eaf1f8" d="M156 337c-28-4-40-14-40-35 0-30-25-48-53-37-10 4-17 4-22 0l-5-2c-10 0-31-40-29-55 1-8 4-11 15-17 28-16 32-55 8-74-17-13-16-25 3-51 16-19 25-22 43-11 14 8 25 8 40 1 19-9 24-15 27-34 4-18 9-21 32-21 38 0 44 5 47 40 3 25 33 41 59 32 22-7 40 7 47 39 6 29 6 29-15 41-11 6-18 18-19 35-1 13-1 15 13 28 11 11 12 12 12 17l1 9c4 12-22 49-34 49l-16-7c-30-15-67 1-73 32-5 21-12 25-41 21zm79-219c6-2 11-6 10-10 0-5-7-5-11-1-3 3-6 3-9 0l-3-3-3 3-2 4 5 5c6 4 6 5 13 2zm-123-4c6-4 7-7 3-11-3-2-3-2-5 1s-7 4-10 1c-2-2-2-3 2-4l-6-1-9 1c0 11 16 19 25 13z"/><path fill="#dde8fb" d="M163 338c-33-3-46-13-47-36-1-32-24-48-54-37-20 7-34-2-47-29-12-25-11-36 7-45 28-16 33-53 8-74-17-14-17-24 3-50 16-20 23-23 42-12 29 15 63 0 68-30 3-22 13-27 43-24 29 4 34 8 36 40l1 10 9 9c16 16 31 20 48 14 21-7 28-4 40 19 15 30 15 47-1 56-16 8-21 16-24 32-4 18-2 25 12 36 10 8 13 15 13 31 0 10-17 34-28 40l-7 3-14-7c-30-15-69 1-74 30-4 22-10 26-34 24zm13-18c5-2 7-6 9-17 8-33 45-50 79-34 17 8 23 6 34-12 13-18 12-25-5-40-20-19-16-62 7-76 20-13 22-18 14-38-8-19-14-23-32-19-37 9-69-13-72-48-2-19-10-25-36-26-14 0-18 4-23 21-9 34-46 50-78 34-16-9-21-8-32 7-15 20-15 27 0 43 23 25 18 62-11 83-15 11-16 15-7 32 9 19 17 24 33 20 33-9 66 14 69 48 2 16 5 20 16 23 9 2 29 2 35-1zm-32-10c-13-3-11-2-13-16-4-27-32-52-59-52l-10-1-5-11-9-22-4-12 6-8c12-19 14-50 4-68l-3-5 6-12 12-21 7-9 6 2c25 9 63-9 73-37l3-6h15l22 2 8 1 1 8c4 28 40 54 69 49l7-1 7 14c7 13 8 14 12 10s5-4 7 4c3 9 2 10-6 15-29 17-34 60-10 87l8 10-4 8c-5 9-16 25-19 27-2 1-5 0-12-4-30-13-72 4-81 32l-3 12-2 6h-11l-22-2zm91-191c10-3 15-14 7-15-3-1-5 0-7 2-5 4-7 4-10 1-4-4-5-4-6 1-2 3-1 4 3 8 5 4 6 5 13 3zm-122-5c4-4 5-5 4-8-1-4-5-5-8-2-4 3-6 3-9 1-2-2-2-3 2-4l-6-1c-11 0-12 2-7 9 7 8 17 10 24 5z"/><path fill="#d9e6fb" d="M163 338c-33-3-46-13-47-36-2-32-24-48-53-37-21 7-34-1-47-27-13-27-12-37 6-47 29-17 33-54 8-74-16-13-16-24 1-47 17-24 24-26 44-15 30 15 62 0 68-32 4-19 9-22 32-22 38 0 45 6 47 40l1 10 9 9c16 16 31 20 48 14 21-7 28-4 40 19 15 30 15 47-2 56-18 10-24 21-24 42 0 14 1 16 14 26 9 8 12 16 12 32 0 9-18 33-28 39l-7 3-14-7c-32-16-68 1-75 35-4 17-11 21-33 19zm13-18c5-2 7-6 9-17 8-33 45-50 79-34 17 8 23 6 34-12 13-18 12-23-3-38-23-24-19-66 9-81 15-9 18-16 11-34-8-20-15-24-33-20-37 9-69-12-72-47-1-19-6-23-26-26-21-3-27 1-32 17-10 37-45 53-79 37-17-9-22-7-34 10-13 20-13 24 2 41 23 24 18 61-11 82-15 11-16 15-7 32 9 19 17 24 33 20 32-8 66 14 69 47 2 15 3 18 8 21 9 5 34 6 43 2zm-29-13c-15-2-15-2-16-12-2-27-32-53-60-53-9 0-9 0-7-2s2-2-4-15c-3-7-8-17-9-23l-3-10 5-8c8-16 10-42 5-56-4-9-4-9 2-21 7-17 19-31 24-30 24 5 57-11 69-32 5-10 16-11 43-6l8 1 1 8c5 23 39 47 65 45 6 0 9 3 16 19 4 10 4 10 9 6 6-4 7-4 9 5l2 6-6 4c-29 19-34 61-10 89l7 8-4 6c-5 10-15 23-19 27l-3 3-9-4c-11-5-13-5-23-5-25 0-52 18-57 37-4 16-3 15-15 15l-20-2zm88-188c10-3 15-14 6-16-3 0-4 0-6 3-4 4-7 4-10 1-4-4-5-4-6 1-2 3-1 4 3 8 5 4 6 5 13 3zm-122-5c4-4 5-5 4-8-1-4-5-5-8-2-4 3-6 3-9 1-2-2-2-3 2-4l-6-1c-11 0-12 2-7 9 7 8 17 10 24 5z"/><path fill="#d3e2fa" d="M163 338c-33-3-46-13-47-37-2-31-24-47-54-36-20 7-33-1-46-27-13-27-12-37 6-47 29-17 33-53 8-74-16-14-16-24 1-47 17-24 24-26 44-15 30 15 62 0 68-32 4-19 9-22 32-22 38 0 45 6 47 40l1 10 9 9c16 16 30 20 48 14 21-7 28-4 40 19 15 30 15 47-2 56-18 10-24 21-24 42 0 14 1 16 14 27 9 7 12 15 12 31 0 9-18 33-28 39l-7 3-14-7c-32-16-68 1-75 35-4 17-11 21-33 19zm12-17c6-2 8-7 10-18 7-33 43-49 77-34 18 7 21 7 31-4 18-20 18-30 2-47a52 52 0 0 1 11-81c14-9 16-15 9-33-8-20-15-24-34-20-35 9-67-12-71-46-2-18-2-19-10-23-21-9-43-6-47 8-10 42-44 59-80 42-18-9-25-7-37 15-10 16-9 20 5 35 23 24 18 63-10 82-15 10-17 17-9 33 9 19 18 24 33 20 34-8 67 14 70 47 2 15 3 18 8 21 9 5 34 6 42 3zm-16-16c-24-2-26-3-28-14-5-25-34-49-60-49h-8l4-4 4-3-5-9c-12-21-15-37-10-51 5-12 6-27 4-38-2-12-2-14 2-23 3-7 3-8 1-9-3-2 0-9 6-10l11-10c5-7 6-7 10-7 17 3 49-12 60-28 7-10 20-11 46-6l8 2 3 7c6 19 32 38 55 40 6 1 8 1 10 4l12 25c0 3 3 2 9-2l5-4 3 6c2 9 2 9-5 14-24 16-28 60-8 84 5 6 6 7 4 10-2 5-15 24-20 30l-4 4-7-3c-31-12-71 5-80 35-1 5-3 9-4 9l-4 1-14-1zm76-186c10-3 15-14 6-16-3 0-4 0-6 3-4 4-7 4-10 1-4-4-5-4-6 1-2 3-1 4 3 8 5 4 6 5 13 3zm-122-5c4-4 5-5 4-8-1-4-5-5-8-2-4 3-6 3-9 1-2-2-2-3 2-4l-6-1c-11 0-12 2-7 9 7 8 17 10 24 5z"/><path fill="#cee0fa" d="M163 338c-33-3-47-14-47-37 0-30-25-47-53-36-21 7-34-1-47-27-13-27-12-37 6-47 28-16 33-53 9-73-17-14-17-23-3-44 18-27 26-30 47-19 30 15 62 0 68-32 4-19 9-22 32-22 38 0 45 6 47 40l1 10 9 9c16 16 30 20 48 14 25-9 44 10 49 47l2 11c2 6-3 12-13 17-28 16-34 50-11 68 10 8 14 16 13 32 0 9-18 33-28 39l-7 3-14-7c-32-16-68 1-75 35-4 17-11 21-33 19zm12-17c6-2 8-6 11-19 8-32 43-48 74-34 20 9 23 8 34-4 17-19 17-29 1-46a52 52 0 0 1 12-82c13-7 14-15 8-32-8-20-15-24-33-20-37 9-69-13-72-48-2-18-6-22-27-25-20-3-26 1-32 19a54 54 0 0 1-78 35c-18-10-27-6-39 18-7 15-7 18 7 33 23 23 18 62-10 81-27 18-7 60 25 53s69 17 69 46c0 15 4 21 15 25 8 2 29 2 35 0zm-22-19-12-3-9-2-1-6c-3-24-35-50-62-50-5 0-5 0-4-1l6-5 4-3-4-7c-11-19-16-41-13-53 2-5 3-13 3-25 0-18 1-23 8-37 4-9 4-11-2-7-3 3-4 3-4-1s3-7 11-9c5-1 8-2 12-8 4-5 6-6 10-6 15 0 37-11 49-23l9-9h17c27 0 33 2 38 11 7 15 32 32 48 35 4 0 7 1 8 3l4 3c4 1 10 11 9 13-2 2 2 15 4 15l8-4 6-4 1 3c4 9 4 11-2 14-23 16-27 61-8 84l5 5-7 11a176 176 0 0 1-18 25c-1 2-2 2-8-1-30-11-68 7-78 35l-2 7h-26zm82-183c10-3 15-14 6-16-3 0-4 0-6 3-4 4-7 4-10 1-4-4-5-4-6 1-2 3-1 4 3 8 5 4 6 5 13 3zm-122-5c4-4 5-5 4-8-1-4-5-5-8-2-4 3-6 3-9 1-2-2-2-3 2-4l-6-1c-11 0-12 2-7 9 7 8 17 10 24 5z"/><path fill="#cadcf9" d="M163 338c-33-3-47-14-47-37 0-30-25-47-53-36-21 7-34-1-47-27-13-27-12-37 6-47 28-16 33-53 9-73-17-14-17-23-3-44 18-27 26-30 47-19 30 15 62 0 68-32 4-19 9-22 32-22 38 0 45 6 47 40l1 10 9 9c16 16 30 20 48 14 25-9 44 10 49 47l2 11c2 6-3 12-13 17-28 16-34 50-11 68 10 8 14 16 13 32 0 9-18 33-28 39l-7 3-14-7c-32-16-68 1-75 35-4 17-11 21-33 19zm12-17c6-2 8-6 11-19 8-32 43-48 74-34 20 9 23 8 34-4 17-19 17-29 1-46a52 52 0 0 1 12-82c13-7 14-15 8-32-8-20-15-24-33-20-37 9-69-13-72-48-2-18-6-22-27-25-20-3-26 1-32 19a54 54 0 0 1-78 35c-18-10-27-6-39 18-7 15-7 18 7 33 23 23 18 62-10 81-27 18-7 60 25 53s69 17 69 46c0 15 4 21 15 25 8 2 29 2 35 0zm-24-22c-16-3-18-4-20-13-7-21-34-42-57-44l-10-1 8-6 8-6-5-10c-17-33-17-71-2-103 6-13 3-19-6-13-3 3-4 3-4-1 0-5 9-10 20-10 3 0 6-2 11-7 5-4 8-7 13-8 10-2 28-11 34-17 12-10 63-10 68 1 5 8 24 23 37 28l11 6 9 3c4 1 13 9 13 13 0 3-5 2-9-1l-4-3 4 10 5 11c0 2 3 2 10-3 9-5 9-5 11 2l2 6-6 5c-19 17-23 58-7 79l5 6-5 9-19 26c-3 4-3 4-8 2-27-11-67 7-76 33l-3 7h-10l-18-1zm84-180c10-3 15-14 6-16-3 0-4 0-6 3-4 4-7 4-10 1-4-4-5-4-6 1-2 3-1 4 3 8 5 4 6 5 13 3zm-122-5c4-4 5-5 4-8-1-4-5-5-8-2-4 3-6 3-9 1-2-2-2-3 2-4l-6-1c-11 0-12 2-7 9 7 8 17 10 24 5z"/><path fill="#c6d9f8" d="M163 338c-33-3-47-14-47-37 0-30-25-47-53-36-21 7-34-1-47-27-13-27-12-37 6-47 28-16 33-53 9-73-17-14-17-23-3-44 18-27 26-30 47-19 30 15 62 0 68-32 4-19 9-22 32-22 38 0 45 6 47 40l1 10 9 9c16 16 30 20 48 14 25-9 44 10 49 47l2 11c2 6-3 12-13 17-28 16-34 50-11 68 10 8 14 16 13 32 0 9-18 33-28 39l-7 3-14-7c-32-16-68 1-75 35-4 17-11 21-33 19zm12-17c6-2 8-7 11-19 7-31 43-48 74-34 20 9 23 8 34-4 17-19 17-29 1-46a52 52 0 0 1 12-82c12-7 14-15 8-32-8-20-15-24-33-20-37 9-69-13-72-48-1-18-6-22-27-25-20-3-26 1-32 19a54 54 0 0 1-78 35c-18-10-27-6-39 18-7 15-7 18 7 32 23 24 18 63-10 82-27 18-7 60 25 53 34-7 69 17 69 46 0 15 4 21 15 25 8 2 29 2 35 0zm-24-25c-10-2-18-5-19-7l-3-8c-6-16-35-38-54-39-11-1-10-2 3-11l11-7-5-10c-15-28-15-74-1-96 5-7-9-20-16-15-3 3-4 3-4-1 0-6 9-10 29-11 11 0 11 0 20-7 14-11 36-20 49-20 3 0 5-1 7-3 1-2 2-2 3 0l12 3c20 3 36 10 52 23 8 7 9 8 20 9 14 2 16 3 20 9 6 8 3 10-5 5-10-7-17-3-12 6l5 11 3 6 4-1c3-1 9-3 13-6 9-4 9-4 11 4 1 5 1 5-4 10-17 16-20 57-6 77l4 4-6 10c-9 16-20 29-24 28-31-8-67 8-77 35-1 4-14 5-30 2zm84-177c10-3 15-14 6-16-3 0-4 0-6 3-4 4-7 4-10 1-4-4-5-4-6 1-2 3-1 4 3 8 5 4 6 5 13 3zm-122-5c4-4 5-5 4-8-1-4-5-5-8-2-4 3-6 3-9 1-2-2-2-3 2-4l-6-1c-11 0-12 2-7 9 7 8 17 10 24 5z"/><path fill="#c5d8f6" d="M163 338c-33-3-47-14-47-37 0-30-25-47-53-36-21 7-34-1-47-27-13-27-12-37 6-47 28-16 33-53 9-73-17-14-17-23-3-44 18-27 26-30 47-19 30 15 62 0 68-32 4-19 9-22 32-22 38 0 45 6 47 40l1 10 9 9c16 16 30 20 48 14 25-9 44 10 49 47l2 11c2 6-3 12-13 17-28 16-34 50-11 68 10 8 14 16 13 32 0 9-18 33-28 39l-7 3-14-7c-32-16-68 1-75 35-4 17-11 21-33 19zm12-17c6-2 8-7 11-19 7-31 43-48 74-34 20 9 23 8 34-4 17-19 17-29 1-46a52 52 0 0 1 12-82c12-7 14-15 8-32-8-20-15-24-33-20-37 9-69-13-72-48-1-18-6-22-27-25-20-3-26 1-32 19a54 54 0 0 1-78 35c-18-10-27-6-39 18-7 15-7 18 7 32 23 24 18 63-10 82-27 18-7 60 25 53 34-7 69 17 69 46 0 15 4 21 15 25 8 2 29 2 35 0zm-22-29-12-2-9-2-4-8c-8-17-30-34-50-38-12-2-9-7 9-16l7-4-4-8c-15-25-16-64-3-90l3-6-4-4-7-8c-3-5-7-6-12-3-3 3-4 3-4-1 0-7 10-10 33-11 15 0 16 0 22-5 13-9 34-17 46-17 4 0 4 0 4-4l1-6c2 0 3 3 3 7 0 3 1 3 6 3 14 0 34 8 49 19 8 6 9 6 20 7 19 2 24 3 28 10 6 8 3 10-5 5-9-6-9-6-14 1l-4 6 4 8 4 9c1 1 17-4 24-7l5-3 2 7c1 6 1 6-3 11-15 17-18 48-7 70 4 8-2 22-18 40l-6 7-8-2c-21-4-55 11-65 30l-3 6h-13l-15-1zm82-173c10-3 15-14 6-16-3 0-4 0-6 3-4 4-7 4-10 1-4-4-5-4-6 1-2 3-1 4 3 8 5 4 6 5 13 3zm-122-5c4-4 5-5 4-8-1-4-5-5-8-2-4 3-6 3-9 1-2-2-2-3 2-4l-6-1c-11 0-12 2-7 9 7 8 17 10 24 5z"/><path fill="#c1d5f5" d="M163 338c-33-3-47-14-47-37 0-30-25-47-53-36-21 7-34-1-47-27-13-27-12-37 6-47 28-16 33-53 9-73-17-14-17-23-3-44 18-27 26-30 47-19 30 15 62 0 68-32 4-19 9-22 32-22 38 0 45 6 47 40l1 10 9 9c16 16 30 20 48 14 25-9 44 10 49 47l2 11c2 6-3 12-13 17-28 16-34 50-11 68 10 8 14 16 13 32 0 9-18 33-28 39l-7 3-14-7c-32-16-68 1-75 35-4 17-11 21-33 19zm12-17c6-2 8-7 11-19 7-31 43-48 74-34 20 9 23 8 34-4 17-19 17-29 1-46a52 52 0 0 1 12-82c12-7 14-15 8-32-8-20-15-24-33-20-37 9-69-13-72-48-1-18-6-22-27-25-20-3-26 1-32 19a54 54 0 0 1-78 35c-18-10-27-6-39 18-7 15-7 18 7 32 23 24 18 63-10 82-27 18-7 60 25 53 34-7 69 17 69 46 0 15 4 21 15 25 8 2 29 2 35 0zm-22-29-12-2-9-2-3-7c-8-18-30-35-51-39-12-2-9-7 11-17 11-5 11-5 5-17a92 92 0 0 1-5-71l5-14c1-2-1-3-3-5-3-1-7-5-10-9-6-8-9-9-14-6-4 4-7-2-2-6 6-5 36-8 46-4l5 2 9-5c10-7 20-11 33-13l10-2v-7c0-8 2-11 3-7l1 8v7h5c13 0 32 7 45 17 5 3 7 4 8 3 2-2 23-1 34 2 6 1 8 2 11 7 6 8 3 10-6 4-8-5-7-5-14 4l-7 7 2 8 4 8 6-2c8-1 18-4 24-7l5-3 2 7c1 6 1 6-3 11-14 16-17 47-8 67 4 10 4 10 2 15-4 8-13 22-19 28l-6 7-8-2c-21-4-55 11-65 30l-3 6h-13l-15-1zm82-173c10-3 15-14 6-16-3 0-4 0-6 3-4 4-7 4-10 1-4-4-5-4-6 1-2 3-1 4 3 8 5 4 6 5 13 3zm-122-5c4-4 5-5 4-8-1-4-5-5-8-2-4 3-6 3-9 1-2-2-2-3 2-4l-6-1c-11 0-12 2-7 9 7 8 17 10 24 5z"/><path fill="#bcd1f4" d="M163 338c-33-3-47-14-47-37 0-30-25-47-53-36-21 7-34-1-47-27-13-27-12-37 6-47 28-16 33-53 9-73-17-14-17-23-3-44 18-27 26-30 47-19 30 15 62 0 68-32 4-19 9-22 32-22 38 0 45 6 47 40l1 10 9 9c16 16 30 20 48 14 25-9 44 10 49 47l2 11c2 6-3 12-13 17-28 16-34 50-11 68 10 8 14 16 13 32 0 9-18 33-28 39l-7 3-14-7c-32-16-68 1-75 35-4 17-11 21-33 19zm12-17c6-2 8-7 11-19 7-31 43-48 74-34 20 9 23 8 34-4 17-19 17-29 1-46a52 52 0 0 1 12-82c12-7 14-15 8-32-8-20-15-24-33-20-37 9-69-13-72-48-1-18-6-22-27-25-20-3-26 1-32 19a54 54 0 0 1-78 35c-18-10-27-6-39 18-7 15-7 18 7 32 23 24 18 63-10 82-27 18-7 60 25 53 34-7 69 17 69 46 0 15 4 21 15 25 8 2 29 2 35 0zm-22-32c-16-2-22-5-25-11-7-14-25-28-43-34-11-4-13-5-13-7s14-11 20-13l5-3 3-4 3-4 2 4c1 2 3 3 6 3 6 0 6-1 0-9-3-5-4-5-4-3 0 3-8 7-10 5-1 0-1-5 1-11v-14c2-1 2-2 1-5-4-13-1-38 6-51 4-8 4-7-3-9-9-3-15-6-21-14s-9-9-14-6c-2 3-4 2-4-2 0-13 49-14 60 0l3 4 6-5c8-5 19-9 29-10l7-1V75l1-16c2-1 3 4 3 11l2 9c1 3 2 4 1 5-5 1-1 5 6 6 10 1 20 5 29 10 6 4 6 4 8 1l6-3 6-2c2-2 23-1 34 2 6 1 8 2 11 7 6 8 3 10-5 5-8-6-8-6-15 2-4 6-7 8-13 11l-7 3 2 5c4 7 20 7 40-1 10-4 10-4 12 5 0 4 0 6-2 8-12 13-16 47-8 65l4 7-5 10-14 21-9 11-10-1c-23-1-55 15-61 31l-2 4h-11l-18-2zm82-170c10-3 15-14 6-16-3 0-4 0-6 3-4 4-7 4-10 1-4-4-5-4-6 1-2 3-1 4 3 8 5 4 6 5 13 3zm-122-5c4-4 5-5 4-8-1-4-5-5-8-2-4 3-6 3-9 1-2-2-2-3 2-4l-6-1c-11 0-12 2-7 9 7 8 17 10 24 5z"/><path fill="#b6cdf3" d="M163 338c-33-3-47-14-47-37 0-30-25-47-53-36-21 7-34-1-47-27-13-27-12-37 6-47 28-16 33-53 9-73-17-14-17-23-3-44 18-27 26-30 47-19 30 15 62 0 68-32 4-19 9-22 32-22 38 0 45 6 47 40l1 10 9 9c16 16 30 20 48 14 25-9 44 10 49 47l2 11c2 6-3 12-13 17-28 16-34 50-11 68 10 8 14 16 13 32 0 9-18 33-28 39l-7 3-14-7c-32-16-68 1-75 35-4 17-11 21-33 19zm12-17c6-2 8-7 11-19 7-31 43-48 74-34 20 9 23 8 34-4 17-19 17-29 1-46a52 52 0 0 1 12-82c12-7 14-15 8-32-8-20-15-24-33-20-37 9-69-13-72-48-1-18-6-22-27-25-20-3-26 1-32 19a54 54 0 0 1-78 35c-18-10-27-6-39 18-7 15-7 18 7 32 23 24 18 63-10 82-27 18-7 60 25 53 34-7 69 17 69 46 0 15 4 21 15 25 8 2 29 2 35 0zm-20-34c-18-3-25-6-30-14-8-12-29-27-40-30-15-3-9-16 8-20 3 0 5-2 5-3 2-5 6-7 7-3s8 5 16 0c8-3 8-4 2-11l-8-14c-3-7-3-7-3-3l-2 12-3 8c0 2-9 6-10 4l1-11c1-8 2-11 0-12v-2c4 0 12-14 12-19-1-8 3-24 7-33 3-6 2-14-2-11-6 3-26-6-33-16-7-8-10-9-15-6-4 4-7-2-2-6 15-13 58-5 61 11l2 8v4l7-5c8-6 19-11 28-12l6-1-1-19c0-20 0-28 3-22l1 8 2 10c2 3 2 4 0 5l-2 10v9h4c8 0 21 4 29 10l7 4 1-5c1-7 6-13 11-14l6-2c2-2 23-1 34 2 6 1 8 2 11 7 6 8 3 10-5 5-8-6-9-6-14 2-7 9-20 15-31 15l-4 1c0 2 6 9 8 9 15 0 35-3 44-6 11-4 12-3 13 6 1 4 0 6-2 10-9 12-12 38-7 56l3 10-3 6c-3 8-12 22-20 31l-6 6h-9c-20 0-45 12-56 27-3 5-15 6-31 4zm80-168c10-3 15-14 6-16-3 0-4 0-6 3-4 4-7 4-10 1-4-4-5-4-6 1-2 3-1 4 3 8 5 4 6 5 13 3zm-122-5c4-4 5-5 4-8-1-4-5-5-8-2-4 3-6 3-9 1-2-2-2-3 2-4l-6-1c-11 0-12 2-7 9 7 8 17 10 24 5z"/><path fill="#acc9f8" d="M149 335c-23-5-32-14-33-34-1-32-25-47-54-36-19 6-35-3-46-27-14-29-12-37 10-50 14-7 19-19 19-39 0-16-1-19-14-31-16-16-17-22-4-42 17-27 29-32 48-21 13 8 27 8 43 1 17-9 22-15 26-36 3-15 10-19 31-19 34 0 44 7 46 29 1 18 1 20 7 26 15 18 34 25 53 18 20-8 31-1 43 28 10 24 9 39-4 46-31 16-37 50-13 69 18 14 18 32 0 56-14 18-19 20-36 11-30-16-70 1-75 32-2 13-3 16-8 19-6 3-26 3-39 0zm28-15c4-2 7-6 9-18 7-32 45-49 77-33 16 8 21 7 32-6 15-19 16-28 2-42-25-27-21-66 8-84 15-8 17-17 9-36-9-18-15-22-33-17-34 9-68-14-71-48-1-18-4-21-24-25-22-4-30 0-35 18-8 35-45 52-77 36-17-9-22-8-33 6-14 20-15 29-2 42 25 25 21 63-8 84-16 11-17 17-9 33 10 20 17 24 35 20 34-7 68 17 68 49 1 11 3 16 9 19 10 6 35 7 43 2zm-23-37c-17-3-26-7-32-15-7-8-20-17-31-22-16-7-17-14-3-20l9-5 4-5 3-3 1 4c2 7 14 4 26-6 6-6 6-7 0-14l-6-13-4-9c-1-3-9 10-9 15l-2 11-3 8c0 2-9 6-10 4l1-11c1-8 2-11 0-12v-2c3 0 15-17 19-27 6-14 4-40-2-36-6 3-26-6-33-16-7-8-10-9-15-6-3 2-4 2-4-2 0-9 35-14 50-7 12 6 13 8 16 34l1 8 6-7c7-7 17-13 27-14 5-1 7-2 7-3-1-5-2-49-1-52s3 1 3 9l2 10c2 3 2 4 0 5l-1 16v14l7 1c9 1 19 6 26 14l6 6v-10c0-17 4-25 13-27l5-2c2-2 21-1 33 2 7 1 8 2 12 7 6 8 3 10-5 5-8-6-9-6-14 2-7 8-19 14-31 15-4 0-6 3-6 8v3l19-1 31-4 11-3 1 3c3 7 3 12 0 18-6 12-8 36-4 50 4 16-23 55-37 55-16 0-37 9-48 20l-7 7-12 1-19-1zm84-166c10-5 11-14 1-14-1 0-4 1-5 3-3 4-6 4-9 1-3-4-5-4-6-1 0 2-1 3-2 3-6 5 13 12 21 8zm-125-3c5-3 6-4 5-7-2-6-7-8-10-3-2 3-5 3-8 1-2-3-2-4 3-3l4-1-10-1c-12 0-13 2-8 9 7 8 16 10 24 5z"/><path fill="#b3c9ed" d="M149 335c-23-5-32-14-33-34-1-32-25-47-54-36-19 6-35-3-46-27-14-29-12-37 10-50 14-7 19-19 19-39 0-16-1-19-14-31-16-16-17-22-4-42 17-27 29-32 48-21 13 8 27 8 43 1 17-9 22-15 26-36 3-15 10-19 31-19 34 0 44 7 46 29 1 18 1 20 7 26 15 18 34 25 53 18 20-8 31-1 43 28 10 24 9 39-4 46-31 16-37 50-13 69 18 14 18 32 0 56-14 18-19 20-36 11-30-16-70 1-75 32-2 13-3 16-8 19-6 3-26 3-39 0zm28-15c4-2 7-6 9-18 7-32 45-49 77-33 16 8 21 7 32-6 15-19 16-28 2-42-25-27-21-66 8-84 15-8 17-17 9-36-9-18-15-22-33-17-34 9-68-14-71-48-1-18-4-21-24-25-22-4-30 0-35 18-8 35-45 52-77 36-17-9-22-8-33 6-14 20-15 29-2 42 25 25 21 63-8 84-16 11-17 17-9 33 10 20 17 24 35 20 34-7 68 17 68 49 1 11 3 16 9 19 10 6 35 7 43 2zm-17-44c-26-3-48-15-66-34-13-13-13-13-4-17l8-5c2-6 6-7 7-3 2 7 14 4 26-6 6-6 6-7 0-14l-6-13-4-9c-1-3-9 10-9 15l-2 11-3 8c0 2-9 6-10 4l1-11c1-8 2-11 0-12v-2c3 0 15-17 19-27 6-14 4-40-2-36-6 3-26-6-33-16-7-8-10-9-15-6-3 2-4 2-4-2 0-9 35-14 50-7 12 6 13 8 16 34l1 8 6-7c7-7 17-13 27-14 5-1 7-2 7-3-1-5-2-49-1-52s3 1 3 9l2 10c2 3 2 4 0 5l-1 16v14l7 1c9 1 19 6 26 14l6 6v-10c0-17 4-25 13-27l5-2c2-2 21-1 33 2 7 1 8 2 12 7 6 8 3 10-5 5-8-6-9-6-14 2-7 8-19 14-31 15-4 0-6 3-6 8v3l20-1 28-3c8-2 7-4 10 10 2 9 2 12 0 17l-2 22c-2 33-25 69-47 74-9 2-21 8-30 14-5 3-24 7-29 6l-9-1zm78-159c10-5 11-14 1-14-1 0-4 1-5 3-3 4-6 4-9 1-3-4-5-4-6-1 0 2-1 3-2 3-6 5 13 12 21 8zm-125-3c5-3 6-4 5-7-2-6-7-8-10-3-2 3-5 3-8 1-2-3-2-4 3-3l4-1-10-1c-12 0-13 2-8 9 7 8 16 10 24 5z"/><path fill="#a8c6f6" d="M149 335c-23-5-32-14-33-34-1-32-25-47-54-36-19 6-35-3-46-27-14-29-12-37 10-50 14-7 19-19 19-39 0-16-1-19-14-31-16-16-17-22-4-42 17-27 29-32 48-21 13 8 27 8 43 1 17-9 22-15 26-36 3-15 10-19 31-19 34 0 44 7 46 29 1 18 1 20 7 26 15 18 34 25 53 18 20-8 31-1 43 28 10 24 9 39-4 46-31 16-37 50-13 69 18 14 18 32 0 56-14 18-19 20-36 11-30-16-70 1-75 32-2 13-3 16-8 19-6 3-26 3-39 0zm28-15c4-2 7-6 9-18 7-32 45-49 77-33 16 8 21 7 32-6 15-19 16-28 2-42-25-27-21-66 8-84 15-8 17-17 9-36-9-18-15-22-33-17-34 9-68-14-71-48-1-18-4-21-24-25-22-4-30 0-35 18-8 35-45 52-77 36-17-9-22-8-33 6-14 20-15 29-2 42 25 25 21 63-8 84-16 11-17 17-9 33 10 20 17 24 35 20 34-7 68 17 68 49 1 11 3 16 9 19 10 6 35 7 43 2zm-17-44c-26-3-48-15-66-34-13-13-13-13-4-17l7-4 3-4 3-4 2 4c5 12 32-4 31-18 0-7 1-9 3-6 4 7 8-4 4-11-16-29 16-63 44-45 7 4 7 4 22 1 3-1 3-1 3-12 0-18 3-26 13-28l5-2c2-2 21-1 33 2 7 1 8 2 12 7 6 8 3 10-5 5-8-6-9-6-14 1-7 9-19 15-31 16-4 0-6 3-6 8v3l20-1 28-3c8-2 7-4 10 10 2 9 2 12 0 17l-2 22c-2 33-25 69-47 74-9 2-21 8-30 14-5 3-24 7-29 6l-9-1zm78-159c10-5 11-14 1-14-1 0-4 1-5 3-3 4-6 4-9 1-3-4-5-4-6-1 0 2-1 3-2 3-6 5 13 12 21 8zM97 213c-1-1 0-6 1-12 1-7 2-10 0-11v-2c3 0 14-16 19-25 6-13 4-42-2-38-7 4-38-14-38-23 0-1-7-1-10 1s-4 2-4-2c0-9 35-13 51-6 11 6 12 8 14 33 3 27 2 31-11 51-4 5-5 8-5 11l-2 9-3 8c-1 5-9 9-10 6zm16-99c5-3 6-4 5-7-2-6-7-8-10-3-2 3-5 3-8 1-2-3-2-4 3-3l4-1-10-1c-12 0-13 2-8 9 7 8 16 10 24 5zm57-1c-1-4-3-48-1-51 1-4 3 0 3 8l2 10c1 3 2 4 0 4-1 1-2 6-2 16 0 9-1 14-2 13z"/><path fill="#acc4ea" d="M149 335c-23-5-32-14-33-34-1-32-25-47-54-36-19 6-35-3-46-27-14-29-12-37 10-50 14-7 19-19 19-39 0-16-1-19-14-31-16-16-17-22-4-42 17-27 29-32 48-21 13 8 27 8 43 1 17-9 22-15 26-36 3-15 10-19 31-19 34 0 44 7 46 29 1 18 1 20 7 26 15 18 34 25 53 18 20-8 31-1 43 28 10 24 9 39-4 46-31 16-37 50-13 69 18 14 18 32 0 56-14 18-19 20-36 11-30-16-70 1-75 32-2 13-3 16-8 19-6 3-26 3-39 0zm28-15c4-2 7-6 9-18 7-32 45-49 77-33 16 8 21 7 32-6 15-19 16-28 2-42-25-27-21-66 8-84 15-8 17-17 9-36-9-18-15-22-33-17-34 9-68-14-71-48-1-18-4-21-24-25-22-4-30 0-35 18-8 35-45 52-77 36-17-9-22-8-33 6-14 20-15 29-2 42 25 25 21 63-8 84-16 11-17 17-9 33 10 20 17 24 35 20 34-7 68 17 68 49 1 11 3 16 9 19 10 6 35 7 43 2zm-26-53c-9-2-28-9-29-11h-4c-3 0-4 0-3-2v-2c-2 0-19-17-23-22l-3-4 4-2 4-3 3-4 3-4 2 4c5 12 32-4 31-18 0-7 1-9 3-6 4 7 8-4 4-11-16-29 16-63 44-45 7 4 7 4 22 1 3-1 3-1 3-12 0-18 3-26 13-28l5-2c2-2 21-1 33 2 7 1 8 2 12 7 6 8 3 10-5 5-8-6-9-6-14 1-7 9-19 15-31 16-4 0-6 3-6 8v3l20-1 24-1c6-1 8 7 8 29 0 66-57 115-120 102zm87-150c10-5 11-14 1-14-1 0-4 1-5 3-3 4-6 4-9 1-3-4-5-4-6-1 0 2-1 3-2 3-6 5 13 12 21 8zM97 213c-1-1 0-6 1-12 1-7 2-10 0-11v-2c3 0 14-16 19-25 6-13 4-42-2-38-7 4-38-14-38-23 0-1-7-1-10 1s-4 2-4-2c0-9 35-13 51-6 11 6 12 8 14 33 3 27 2 31-11 51-4 5-5 8-5 11l-2 9-3 8c-1 5-9 9-10 6zm16-99c5-3 6-4 5-7-2-6-7-8-10-3-2 3-5 3-8 1-2-3-2-4 3-3l4-1-10-1c-12 0-13 2-8 9 7 8 16 10 24 5zm57-1c-1-4-3-48-1-51 1-4 3 0 3 8l2 10c1 3 2 4 0 4-1 1-2 6-2 16 0 9-1 14-2 13z"/><path fill="#a3c2f4" d="M149 335c-23-5-32-14-33-34-1-32-25-47-54-36-19 6-35-3-46-27-14-29-12-37 10-50 14-7 19-19 19-39 0-16-1-19-14-31-16-16-17-22-4-42 17-27 29-32 48-21 13 8 27 8 43 1 17-9 22-15 26-36 3-15 10-19 31-19 34 0 44 7 46 29 1 18 1 20 7 26 15 18 34 25 53 18 20-8 31-1 43 28 10 24 9 39-4 46-31 16-37 50-13 69 18 14 18 32 0 56-14 18-19 20-36 11-30-16-70 1-75 32-2 13-3 16-8 19-6 3-26 3-39 0zm28-15c4-2 7-6 9-18 7-32 45-49 77-33 16 8 21 7 32-6 15-19 16-28 2-42-25-27-21-66 8-84 15-8 17-17 9-36-9-18-15-22-33-17-34 9-68-14-71-48-1-18-4-21-24-25-22-4-30 0-35 18-8 35-45 52-77 36-17-9-22-8-33 6-14 20-15 29-2 42 25 25 21 63-8 84-16 11-17 17-9 33 10 20 17 24 35 20 34-7 68 17 68 49 1 11 3 16 9 19 10 6 35 7 43 2zm-26-53c-9-2-28-9-29-11h-4c-3 0-4 0-3-2v-2c-2 0-19-17-23-22l-3-4 4-2c2-1 5-3 6-6 3-4 4-4 6 0 5 11 32-6 31-19 0-7 1-8 4-5 2 2 5-1 12-16 13-24 34-39 56-39h4v-11c0-19 4-29 11-29l6-2c4-3 20-2 34 1 7 1 8 2 12 7 6 8 3 10-5 5-8-6-9-6-14 1-7 9-20 16-31 16-4 0-6 3-6 8 0 3 16 3 44 1 6-1 8 7 8 29 0 66-57 115-120 102zm87-150c10-5 11-14 1-14-1 0-4 1-5 3-3 4-6 4-9 1-3-4-5-4-6-1 0 2-1 3-2 3-6 5 13 12 21 8zM97 213c-1-1 0-6 1-12s2-10 1-11-1-2 1-3c19-6 28-61 11-63-14-1-30-11-33-20-1-3-7-3-11-1-3 2-4 2-4-2 0-9 35-13 51-6 14 7 23 55 12 68l-2 3-5 9c-6 9-9 17-7 17l-2 6-3 9c-1 5-9 9-10 6zm16-99c5-3 6-4 5-7-2-6-7-8-10-3-2 3-5 3-8 1-2-3-2-4 3-3l4-1-10-1c-12 0-13 2-8 9 7 8 16 10 24 5zm57-2c-1-5-3-47-1-50 1-4 3 0 3 8l2 10c1 3 2 4 0 4-1 1-2 6-2 16s-1 14-2 12z"/><path fill="#b8c4d3" d="M149 335c-23-5-32-14-33-34-1-32-25-47-54-36-19 6-35-3-46-27-14-29-12-37 10-50 14-7 19-19 19-39 0-16-1-19-14-31-16-16-17-22-4-42 17-27 29-32 48-21 13 8 27 8 43 1 17-9 22-15 26-36 3-15 10-19 31-19 34 0 44 7 46 29 1 18 1 20 7 26 15 18 34 25 53 18 20-8 31-1 43 28 10 24 9 39-4 46-31 16-37 50-13 69 18 14 18 32 0 56-14 18-19 20-36 11-30-16-70 1-75 32-2 13-3 16-8 19-6 3-26 3-39 0zm28-15c4-2 7-6 9-18 7-32 45-49 77-33 16 8 21 7 32-6 15-19 16-28 2-42-25-27-21-66 8-84 15-8 17-17 9-36-9-18-15-22-33-17-34 9-68-14-71-48-1-18-4-21-24-25-22-4-30 0-35 18-8 35-45 52-77 36-17-9-22-8-33 6-14 20-15 29-2 42 25 25 21 63-8 84-16 11-17 17-9 33 10 20 17 24 35 20 34-7 68 17 68 49 1 11 3 16 9 19 10 6 35 7 43 2zm-21-60c-10-2-18-5-28-10-9-5-10-5-12 1-1 1-3 0-5-2-1-2-3-4-2-5h-3c-2 0-2 0-2-3 1-2 1-2-1-1-2 2-2 2-1 0l-1-2c-1 1-2-1-3-4l-2-5-2-4v-1c1 1 2 0 4-3 3-7 5-7 7-3 5 11 32-6 31-19 0-7 1-8 4-5 2 2 5-1 12-16 13-24 34-39 56-39h4v-11c0-19 4-29 11-29l6-2c4-3 20-2 34 1 7 1 8 2 12 7 6 8 3 10-5 5-8-6-9-6-14 1-7 9-20 16-31 16-4 0-6 3-6 8 0 3 0 3 20 2h21l1 6c6 26 1 55-13 76l-5 9c0 5-3 11-6 11-2 0-3 0-1 1 2 2 2 4 0 3l-1 1-3 1c-2-1-3 0-3 2s-1 3-2 3l-2-2c0-2-5-1-14 4-15 8-39 11-55 8zm82-143c10-5 11-14 1-14-1 0-4 1-5 3-3 4-6 4-9 1-3-4-5-4-6-1 0 2-1 3-2 3-6 5 13 12 21 8zM115 255l2-3c1 0 2 0 1 1l-2 3-1-1zm-18-42c-1-1 0-6 1-12s2-10 1-11-1-2 1-3c19-6 28-61 11-63-14-1-30-11-33-20-1-3-7-3-11-1-3 2-4 2-4-2 0-9 35-13 51-6 14 7 23 55 12 68l-2 3-5 9c-6 9-9 17-7 17l-2 6-3 9c-1 5-9 9-10 6zm16-99c5-3 6-4 5-7-2-6-7-8-10-3-2 3-5 3-8 1-2-3-2-4 3-3l4-1-10-1c-12 0-13 2-8 9 7 8 16 10 24 5zm57-2c-1-5-3-47-1-50 1-4 3 0 3 8l2 10c1 3 2 4 0 4-1 1-2 6-2 16s-1 14-2 12z"/><path fill="#a0bef0" d="M149 335c-24-5-32-14-33-33 0-32-24-48-55-37-11 4-14 4-19 0l-5-2c-8 0-23-25-28-43-4-15-1-21 16-30 15-9 20-20 20-42 0-15-1-18-14-30-16-15-17-22-4-41 18-29 29-34 48-22 27 16 62 0 68-31 4-19 9-23 30-23 37 0 46 7 48 33 1 17 4 23 17 32 17 12 26 14 43 8 21-7 30-2 42 27 11 25 10 40-3 47-30 16-37 50-14 69 19 15 19 33 0 57-14 17-19 19-36 9-16-8-26-9-44 0-20 9-26 16-31 35-4 19-17 24-46 17zm27-15c5-2 7-6 10-18 5-22 25-37 51-39 10-1 10 0 32 9 25 11 48-30 28-51-25-27-21-66 8-83 16-10 17-18 8-38-8-18-14-21-33-16-33 9-66-14-69-47-2-20-6-24-29-27-19-2-26 1-30 17-6 20-12 28-29 37-20 10-31 10-49 1-17-9-21-8-32 5-16 19-16 29-3 43 25 26 21 64-9 85-26 18-5 60 27 52 33-8 66 15 68 48 1 14 3 17 10 21 10 5 33 6 41 1zm-20-60c-10-2-18-5-28-10-9-5-10-5-12 1-1 1-3 0-5-2-1-2-3-4-2-5h-3c-2 0-2 0-2-3 1-2 1-2-1-1-2 2-2 2-1 0l-1-2c-1 1-2-1-3-4l-2-5-2-4v-1c1 1 2 0 4-3 3-7 5-7 7-3 5 11 32-6 31-19 0-7 1-8 4-5 2 2 5-1 12-16 13-24 34-39 56-39h4v-11c0-27 8-34 33-33 21 2 25 3 30 11 6 7 3 9-5 4-7-6-9-6-13 0-8 11-21 17-32 17-4 0-6 3-6 8 0 3 0 3 20 2h21l1 6c6 26 1 55-13 76l-5 9c0 5-3 11-6 11-2 0-3 0-1 1 2 2 2 4 0 3l-1 1-3 1c-2-1-3 0-3 2s-1 3-2 3l-2-2c0-2-5-1-14 4-15 8-39 11-55 8zm82-143c10-5 11-14 1-14-1 0-4 1-5 3-3 4-6 4-9 1-3-4-5-4-6-1 0 2-1 3-2 3-6 5 13 12 21 8zM115 255l2-3c1 0 2 0 1 1l-2 3-1-1zm-19-43 2-11c1-5 2-10 1-11 0 0 0-2 2-3 22-23 28-61 10-63-13-1-34-14-34-22l-11 1c-3 1-3 1-3-1 0-15 53-14 61 1 6 10 7 54 2 60l-2 3-5 9c-6 9-9 17-7 17l-2 7-3 9-3 4c-3 2-8 2-8 0zm17-98c5-3 6-4 5-7-2-6-7-8-10-3-2 3-5 3-8 1-2-3-2-4 3-3l4-1-10-1c-12 0-13 2-7 9 7 9 15 10 23 5zm57-2c-1-5-3-47-1-50 1-4 3 1 3 8l2 10c1 3 2 4 0 4-1 1-2 6-2 16s-1 14-2 12z"/><path fill="#9dbdf0" d="M149 335c-24-5-32-14-33-33 0-32-24-48-55-37-11 4-14 4-19 0l-5-2c-8 0-23-25-28-43-4-15-1-21 16-30 15-9 20-20 20-42 0-15-1-18-14-30-16-15-17-22-4-41 18-29 29-34 48-22 27 16 62 0 68-31 4-19 9-23 30-23 37 0 46 7 48 33 1 17 4 23 17 32 17 12 26 14 43 8 21-7 30-2 42 27 11 25 10 40-3 47-30 16-37 50-14 69 19 15 19 33 0 57-14 17-19 19-36 9-16-8-26-9-44 0-20 9-26 16-31 35-4 19-17 24-46 17zm27-15c5-2 7-6 10-18 5-22 25-37 51-39 10-1 10 0 32 9 25 11 48-30 28-51-25-27-21-66 8-83 16-10 17-18 8-38-8-18-14-21-33-16-33 9-66-14-69-47-2-20-6-24-29-27-19-2-26 1-30 17-6 20-12 28-29 37-20 10-31 10-49 1-17-9-21-8-32 5-16 19-16 29-3 43 25 26 21 64-9 85-26 18-5 60 27 52 33-8 66 15 68 48 1 14 3 17 10 21 10 5 33 6 41 1zm-27-65-19-8-10-5-2 5c-2 5-6 6-5 2l-1-2c-3 0-4-1-3-2 0-2 0-2-2-1-3 0-3 0-3-2 1-2 1-3-1-2-1 0-2 0-1-1l-1-1c-1 1-2-1-3-4l-2-5-2-4v-1c1 1 2 0 4-3 3-7 5-7 7-3 5 11 32-5 31-18 0-8 1-9 4-6 2 2 5-1 10-12 13-26 29-39 53-42l9-2v-10c0-27 8-34 33-33 21 2 25 3 30 11 6 7 3 9-5 4-7-6-9-6-13 0-8 11-21 17-32 17-4 0-6 3-6 8 0 2 0 3 18 2h19l2 9c5 22 0 49-11 68-3 4-5 9-5 11 1 6-2 14-5 14-2 0-3 0-1 1 2 2 2 4 0 3l-1 1-3 1c-2-1-3 0-3 2s0 3-3 2l-1-1-2-1c-3 0-2-4 1-6l4-1 1-1c2-2-4 0-8 3a89 89 0 0 1-72 13zm89-138c10-5 11-14 1-14-1 0-4 1-5 3-3 4-6 4-9 1-3-4-5-4-6-1 0 2-1 3-2 3-6 5 13 12 21 8zM115 255l2-3c1 0 2 0 1 1l-2 3-1-1zm-19-43 2-11c1-5 2-10 1-11 0 0 0-2 2-3 22-23 28-61 10-63-13-1-34-14-34-22l-11 1c-3 1-3 1-3-1 0-15 53-14 61 1 6 10 7 54 2 60l-2 3-5 9c-6 9-9 17-7 17l-2 7-3 9-3 4c-3 2-8 2-8 0zm17-98c5-3 6-4 5-7-2-6-7-8-10-3-2 3-5 3-8 1-2-3-2-4 3-3l4-1-10-1c-12 0-13 2-7 9 7 9 15 10 23 5zm57-2c-1-5-3-47-1-50 1-4 3 1 3 8l2 10c1 3 2 4 0 4-1 1-2 6-2 16s-1 14-2 12z"/><path fill="#99baee" d="M149 335c-24-5-32-14-33-33 0-32-24-48-55-37-11 4-14 4-19 0l-5-2c-8 0-23-25-28-43-4-15-1-21 16-30 15-9 20-20 20-42 0-15-1-18-14-30-16-15-17-22-4-41 18-29 29-34 48-22 27 16 62 0 68-31 4-19 9-23 30-23 37 0 46 7 48 33 1 17 4 23 17 32 17 12 26 14 43 8 21-7 30-2 42 27 11 25 10 40-3 47-30 16-37 50-14 69 19 15 19 33 0 57-14 17-19 19-36 9-16-8-26-9-44 0-20 9-26 16-31 35-4 19-17 24-46 17zm27-15c5-2 7-6 10-18 5-22 25-37 51-39 10-1 10 0 32 9 25 11 48-30 28-51-25-27-21-66 8-83 16-10 17-18 8-38-8-18-14-21-33-16-33 9-66-14-69-47-2-20-6-24-29-27-19-2-26 1-30 17-6 20-12 28-29 37-20 10-31 10-49 1-17-9-21-8-32 5-16 19-16 29-3 43 25 26 21 64-9 85-26 18-5 60 27 52 33-8 66 15 68 48 1 14 3 17 10 21 10 5 33 6 41 1zm-61-65 2-3c1 0 2 0 1 1l-2 3-1-1zm-2-4v-3l-1-1c-2 0-4-1-3-2 0-2 0-2-2-1-3 0-3 0-3-2 1-2 1-3-1-2-1 0-2 0-1-1l-1-1c-1 1-2-1-3-4l-2-5-2-4v-1c1 1 2 0 4-3 3-7 5-7 7-3 5 11 32-5 31-18 0-8 1-9 4-6 2 2 5-1 10-12 13-26 29-39 53-42l9-2v-10c0-27 8-34 33-33 21 2 25 3 30 11 6 7 3 9-5 4-7-6-9-6-13 0-8 11-21 17-32 17-4 0-6 3-6 8 0 2 1 2 15 3h16l2 7c5 17 2 43-7 60l-4 11c4 5 0 23-4 23-2 0-3 0-1 1 2 3 2 5-1 3-1-2-2-2-1 0s1 2-2 2c-2-1-3-1-3 2 0 2-1 3-3 2l-1-1-2-1c-2 0-2-4 1-5l5-2-3-3-3-4-8 6a84 84 0 0 1-86 0c-7-4-10-4-11-1 0 1 0 2 1 1 2 0 2 1-1 6-2 7-4 8-5 6zm3-22c-3-2-5-3-6-2s-1 1 5 4 6 3 1-2zm124 2-2-1c0-1-1 0 0 0 1 2 2 3 2 1zm-2-114c10-5 11-14 1-14-1 0-4 1-5 3-3 4-6 4-9 1-3-4-5-4-6-1 0 2-1 3-2 3-6 5 13 12 21 8zM96 212l2-11c1-5 2-10 1-11 0 0 0-2 2-3 22-23 28-61 10-63-13-1-34-14-34-22l-11 1c-3 1-3 1-3-1 0-15 53-14 61 1 6 10 7 54 2 60l-2 3-5 9c-6 9-9 17-7 17l-2 7-3 9-3 4c-3 2-8 2-8 0zm17-98c5-3 6-4 5-7-2-6-7-8-10-3-2 3-5 3-8 1-2-3-2-4 3-3l4-1-10-1c-12 0-13 2-7 9 7 9 15 10 23 5zm57-2c-1-5-3-47-1-50 1-4 3 1 3 8l2 10c1 3 2 4 0 4-1 1-2 6-2 16s-1 14-2 12z"/><path fill="#92b5eb" d="M149 335c-24-5-32-14-33-33 0-32-24-48-55-37-11 4-14 4-19 0l-5-2c-8 0-23-25-28-43-4-15-1-21 16-30 15-9 20-20 20-42 0-15-1-18-14-30-16-15-17-22-4-41 18-29 29-34 48-22 27 16 62 0 68-31 4-19 9-23 30-23 37 0 46 7 48 33 1 17 4 23 17 32 17 12 26 14 43 8 21-7 30-2 42 27 11 25 10 40-3 47-30 16-37 50-14 69 19 15 19 33 0 57-14 17-19 19-36 9-16-8-26-9-44 0-20 9-26 16-31 35-4 19-17 24-46 17zm27-15c5-2 7-6 10-18 5-22 25-37 51-39 10-1 10 0 32 9 25 11 48-30 28-51-25-27-21-66 8-83 16-10 17-18 8-38-8-18-14-21-33-16-33 9-66-14-69-47-2-20-6-24-29-27-19-2-26 1-30 17-6 20-12 28-29 37-20 10-31 10-49 1-17-9-21-8-32 5-16 19-16 29-3 43 25 26 21 64-9 85-26 18-5 60 27 52 33-8 66 15 68 48 1 14 3 17 10 21 10 5 33 6 41 1zm-61-66c1-1 0-2-1-3-1 0-2-1-1-2l-1-2c-1 1-1 1-1-1 1-2 1-2-1-1-2 2-2 2-1 0 0-2 0-2-2-1-3 0-3 0-3-2 1-2 1-3-1-2-2 0-2 0 0-3 1-3 1-3-1 0-3 2-3 2-3 0l-3-8-2-5c1 1 2 0 3-3 2-5 6-8 7-5l4 5c3 3 3 4 2 6l-1 3c3-2 13 4 10 6-2 2-3 5 0 3 2-1 1 2-1 7-2 4-2 5-1 6s2 2 1 3c-1 2-3 1-3-1zm110-5c-1-1-1-1 0 0 1 0 1-1-1-2-3-3-1-7 5-7l-3-3c-4-5-4-6 1-7 4-2 7-8 7-16 1-6 0-6-6 1-23 32-73 36-104 10l-6-5 5-3c12-7 14-9 13-18 0-7 1-9 4-5 2 2 5-2 12-15 12-23 28-35 50-39l10-2v-10c0-27 8-34 33-33 21 2 25 3 30 11 6 7 3 9-5 4-7-6-9-6-13 0-8 11-21 17-32 17-4 0-6 3-6 8 0 3 0 3 11 3l11-1 2 5c3 9 3 33 0 43-2 8-3 22-1 38 1 8 1 8-2 7-3 0-3 0-1 2 3 3 2 7-2 7-2 0-2 0-1 2 2 2 2 2 0 1-2 0-2 0-2 2 1 1 0 1-2 1-2-1-3-1-3 1 0 3-3 5-4 3zm13-132c10-5 11-14 1-14-1 0-4 1-5 3-3 4-6 4-9 1-3-4-5-4-6-1 0 2-1 3-2 3-6 5 13 12 21 8zM96 212l2-11c1-5 2-10 1-11 0 0 0-2 2-3 22-23 28-61 10-63-13-1-34-14-34-22l-11 1c-3 1-3 1-3-1 0-15 53-14 61 1 6 10 7 54 2 60l-2 3-5 9c-6 9-9 17-7 17l-2 7-3 9-3 4c-3 2-8 2-8 0zm17-98c5-3 6-4 5-7-2-6-7-8-10-3-2 3-5 3-8 1-2-3-2-4 3-3l4-1-10-1c-12 0-13 2-7 9 7 9 15 10 23 5zm57-2c-1-5-3-47-1-50 1-4 3 1 3 8l2 10c1 3 2 4 0 4-1 1-2 6-2 16s-1 14-2 12z"/><path fill="#a8b7ca" d="M149 335c-24-5-32-14-33-33 0-32-24-48-55-37-11 4-14 4-19 0l-5-2c-8 0-23-25-28-43-4-15-1-21 16-30 15-9 20-20 20-42 0-15-1-18-14-30-16-15-17-22-4-41 18-29 29-34 48-22 27 16 62 0 68-31 4-19 9-23 30-23 37 0 46 7 48 33 1 17 4 23 17 32 17 12 26 14 43 8 21-7 30-2 42 27 11 25 10 40-3 47-30 16-37 50-14 69 19 15 19 33 0 57-14 17-19 19-36 9-16-8-26-9-44 0-20 9-26 16-31 35-4 19-17 24-46 17zm27-15c5-2 7-6 10-18 5-22 25-37 51-39 10-1 10 0 32 9 25 11 48-30 28-51-25-27-21-66 8-83 16-10 17-18 8-38-8-18-14-21-33-16-33 9-66-14-69-47-2-20-6-24-29-27-19-2-26 1-30 17-6 20-12 28-29 37-20 10-31 10-49 1-17-9-21-8-32 5-16 19-16 29-3 43 25 26 21 64-9 85-26 18-5 60 27 52 33-8 66 15 68 48 1 14 3 17 10 21 10 5 33 6 41 1zm-61-66c1-1 0-2-1-3-1 0-2-1-1-2l-1-2c-1 1-2 1-1-1v-1l-2-1h-3c-2 0-2 0-2-2 1-2 1-3-1-2-2 0-2 0 0-3 1-3 1-3-1 0-3 2-4 2-3-4l-3-5-3-5 1 1c1 1 2 0 3-3 2-5 6-8 7-5l4 5c2 2 3 3 1 5v4c1-1 9 2 11 4l-1 3c-2 1-2 2-1 3 2 1 2 2 0 6s-2 5-1 6 2 2 1 3c-1 2-3 1-3-1zm110-5c-1-1-1-1 0 0 1 0 1-1-1-2-3-3-1-7 5-7l-3-3c-4-5-4-6 1-7 6-1 9-14 6-25l-2-8c0-2-2-1-4 4-8 14-28 28-43 30l-5 3-3 1c-2 0-2 0 0 1s2 1 0 3-2 2-3 0l-2-1c0 2-1 2-3 0-2-1-2-2-2-3 1-2-1-3-6-3-8-1-22-7-28-13l-4-3 4-5c4-4 5-5 4-12 0-7 1-8 4-5 2 2 6-3 13-15 11-24 28-36 52-40l7-1v-10c0-27 8-34 33-33 21 2 25 3 30 11 6 7 3 9-5 4-7-6-9-6-13 0-8 11-21 17-32 17-9-1-9 11 0 12h6l3 8 2 21c0 13 0 19 3 25l2 12 1 18c1 8 1 8-2 7-3 0-3 0-1 2 3 3 2 7-2 7-2 0-2 0-1 2 2 2 2 2 0 1-2 0-3 0-2 1l-2 1c-2 0-3 1-3 2 0 3-3 5-4 3zm13-132c10-5 11-14 1-14-1 0-4 1-5 3-3 4-6 4-9 1-3-4-5-4-6-1 0 2-1 3-2 3-6 5 13 12 21 8zM96 212l2-11c1-5 2-10 1-11 0 0 0-2 2-3 22-23 28-61 10-63-13-1-34-14-34-22l-11 1c-3 1-3 1-3-1 0-15 53-14 61 1 6 10 7 54 2 60l-2 3-5 9c-6 9-9 17-7 17l-2 7-3 9-3 4c-3 2-8 2-8 0zm17-98c5-3 6-4 5-7-2-6-7-8-10-3-2 3-5 3-8 1-2-3-2-4 3-3l4-1-10-1c-12 0-13 2-7 9 7 9 15 10 23 5zm57-2c-1-5-3-47-1-50 1-4 3 1 3 8l2 10c1 3 2 4 0 4-1 1-2 6-2 16s-1 14-2 12z"/><path fill="#8db1e8" d="M149 335c-23-5-32-14-32-33-1-32-25-48-56-37-11 4-14 4-18 1l-9-5c-13-7-29-39-26-55 1-6 5-10 17-16 26-15 29-52 5-73-15-13-15-21-4-40 18-28 30-33 49-22 27 16 63-1 68-31 4-19 9-23 32-23 35 0 44 7 46 33 2 31 30 50 60 40 20-7 28-2 40 21 14 29 13 45-2 53-29 16-36 49-13 68 19 16 19 34 0 58-14 17-19 19-35 10-17-9-27-10-45-1-20 9-26 16-31 35-4 19-17 24-46 17zm27-14c5-3 7-7 10-17 8-34 43-50 77-35 18 9 24 7 36-11 12-19 11-23-2-37-25-27-21-67 8-83 16-9 18-18 8-38-8-18-14-21-33-16-33 9-66-14-69-48-2-18-6-22-27-26-20-3-27 1-32 17-6 20-11 28-28 36-19 10-34 11-51 1-15-8-21-7-31 6-16 19-16 29-3 43 24 26 21 64-9 84-14 10-16 16-9 31 10 22 18 26 37 22 32-8 64 16 67 48 1 14 3 19 11 22 10 4 32 5 40 1zm-61-67c1-1 0-2-1-3-1 0-2-1-1-2l-1-2c-1 1-2 1-1-1v-1l-2-1h-3c-2 0-2 0-2-2 1-2 1-3-1-2-2 0-2 0 0-3 1-3 1-3-1 0-3 2-3 2-3-1l-4-8c-1-2-2-4-1-5l1 1 3-4c4-5 6-7 6-4l3 5c3 2 4 3 2 5v4c1-1 9 2 11 4l-1 3c-2 1-2 2-1 3 2 1 2 2 0 6s-2 5-1 6 2 2 1 3c-1 2-3 1-3-1zm110-5c-1-1-1-1 0 0 1 0 1-1-1-2-3-3-1-7 5-7l-3-3c-4-5-4-6 1-7 6-1 9-14 6-25l-2-8c0-2-2-1-4 4-8 14-28 28-43 30l-5 3-3 1c-2 0-2 0 0 1s2 1 0 3-2 2-3 0l-2-1c0 2-1 2-3 0-2-1-2-2-2-3 1-2-1-3-6-3-8-1-22-7-28-13l-4-3 4-5c5-5 5-5 4-12 0-7 1-9 4-6 2 3 5 0 12-13 13-25 29-37 53-41l7-1v-14c1-15 3-22 8-24 10-5 17-6 32-4 16 2 19 3 23 10 5 7 3 9-5 3-8-5-8-5-16 4-6 7-9 9-15 10l-10 3-5 1c-4-1-5 2-5 7 0 4 0 5 6 5h6l3 8 2 21c0 13 0 19 3 25l2 12 1 18c1 8 1 8-2 7-3 0-3 0-1 2 3 3 2 7-2 7-2 0-2 0-1 2 2 2 2 2 0 1-2 0-3 0-2 1l-2 1c-2 0-3 1-3 2 0 3-3 5-4 3zm13-132c10-5 11-14 1-14-1 0-4 1-5 3-3 4-6 4-9 1-3-4-5-4-6-1 0 2-1 3-2 3-6 5 13 12 21 8zM96 212l2-10c1-5 2-10 1-12l1-3c15-9 29-61 18-62-21-2-29-6-41-22-2-3-3-3-7-1-8 3-10 1-5-4 20-20 59-5 63 24 3 29 1 39-12 57-2 4-4 8-4 12l-3 10-2 6c0 3-4 6-8 6l-3-1zm17-98c5-3 6-4 5-7-2-6-7-8-10-3-2 3-5 3-8 1-2-3-2-4 3-3l4-1-10-1c-12 0-13 2-7 9 7 9 15 10 23 5zm57-3c-2-8-1-54 1-49l1 8 2 10c1 3 2 4 0 4-1 1-2 6-2 15s-1 14-2 12z"/><path fill="#87abe5" d="M149 335c-23-5-32-14-32-33-1-32-25-48-56-37-11 4-14 4-18 1l-9-5c-13-7-29-39-26-55 1-6 5-10 17-16 26-15 29-52 5-73-15-13-15-21-4-40 18-28 30-33 49-22 27 16 63-1 68-31 4-19 9-23 32-23 35 0 44 7 46 33 2 31 30 50 60 40 20-7 28-2 40 21 14 29 13 45-2 53-29 16-36 49-13 68 19 16 19 34 0 58-14 17-19 19-35 10-17-9-27-10-45-1-20 9-26 16-31 35-4 19-17 24-46 17zm27-14c5-3 7-7 10-17 8-34 43-50 77-35 18 9 24 7 36-11 12-19 11-23-2-37-25-27-21-67 8-83 16-9 18-18 8-38-8-18-14-21-33-16-33 9-66-14-69-48-2-18-6-22-27-26-20-3-27 1-32 17-6 20-11 28-28 36-19 10-34 11-51 1-15-8-21-7-31 6-16 19-16 29-3 43 24 26 21 64-9 84-14 10-16 16-9 31 10 22 18 26 37 22 32-8 64 16 67 48 1 14 3 19 11 22 10 4 32 5 40 1zm-61-67c1-1 0-2-1-3-1 0-2-1-1-2l-1-2c-1 1-2 0-2-2-1-1-2-2-4-1-2 0-2 0-2-2 1-2 1-3-1-2-2 0-2 0 0-3 1-3 1-3-1 0-3 2-3 2-3-1l-4-8c-1-2-2-4-1-5l1 1 3-4c4-5 6-7 6-4l3 5c3 2 4 3 2 5v4c1-1 9 2 11 4l-1 3c-2 1-2 2-1 3 2 1 2 2 0 6s-2 5-1 6 2 2 1 3c-1 2-3 1-3-1zm-2-10v-1l-2 1v1l2-1zm4-1v-2l-2 2v1l2-1zm108 6c-1-1-1-1 0 0 1 0 1-1-1-2-3-2-1-6 3-6l2-1-3-3c-4-5-4-6 1-7 6-2 11-22 5-28l-1-5c0-12-6-20-8-12-4 12-16 26-29 33-6 3-17 14-16 15 0 1 0 2-2 2s-2 0 0 1 2 1 0 3-2 2-3-1-1-3-2 0l-2 1-2-2c-1 0-2 0-1-2 1-3-1-8-4-8l-7-5-13-9c-4-2-7-5-6-5v-9c0-7 1-9 4-6 2 3 6 0 12-13 12-24 27-35 49-40l11-2v-14c1-15 3-22 8-24 10-5 17-6 32-4 16 2 19 3 23 10 5 7 3 9-5 3-8-5-8-5-16 4-6 7-9 9-15 10l-10 3-5 1c-6-1-7 6-3 15 2 3 4 10 5 16 1 7 3 14 6 20l5 11 2 4 2 12 1 18c1 8 1 8-2 7-3 0-3 0-1 2 3 3 2 7-3 6-3 0-3 0 0 2 2 3 2 3 0 2l-3 1c0 1 0 2-2 1l-2 2c0 3-3 5-4 3zm13-132c10-5 11-14 1-14-1 0-4 1-5 3-3 4-6 4-9 1-3-4-5-4-6-1 0 2-1 3-2 3-6 5 13 12 21 8zM96 212l2-10c1-5 2-10 1-12l1-3c15-9 29-61 18-62-21-2-29-6-41-22-2-3-3-3-7-1-8 3-10 1-5-4 20-20 59-5 63 24 3 29 1 39-12 57-2 4-4 8-4 12l-3 10-2 6c0 3-4 6-8 6l-3-1zm17-98c5-3 6-4 5-7-2-6-7-8-10-3-2 3-5 3-8 1-2-3-2-4 3-3l4-1-10-1c-12 0-13 2-7 9 7 9 15 10 23 5zm57-3c-2-8-1-54 1-49l1 8 2 10c1 3 2 4 0 4-1 1-2 6-2 15s-1 14-2 12z"/><path fill="#536d88" d="M146 332c-21-3-29-10-29-28 0-33-30-55-61-44-37 12-66-50-33-69 28-16 33-54 8-74-17-14-17-24 3-50 14-18 24-22 40-12 29 16 64 1 70-31 3-21 14-26 47-21 23 3 28 8 29 30 2 32 30 51 61 42 21-7 27-4 39 20 14 28 12 37-6 48a45 45 0 0 0-9 73c17 15 17 25 1 47-17 23-25 26-43 16-30-16-64-1-70 32-3 20-14 25-47 21zm26-9c8-3 12-7 14-19 8-34 45-50 77-34 17 9 27 4 40-18 8-13 7-19-7-34-23-25-19-61 7-79 17-11 20-17 13-34-8-21-16-26-32-23-21 6-29 5-44-4-21-12-28-23-29-43-2-19-8-24-32-25-19-1-24 2-28 19-9 34-47 52-77 35-18-10-29-5-41 20-7 13-6 18 6 31 24 24 20 62-8 81-16 11-18 17-11 32 11 22 19 27 41 22 29-7 62 18 64 48 1 22 21 32 47 25zm-56-68c0-1 0-2 1-1v2l-1-1Zm-3-7v-5c1-1 2 0 1 2l2-2 4-4-2 6c-3 6-4 7-5 3zm114-1-3-1-2-1v-1l3-1c3-3 4-3 6-2l2 3-3-1c-2-2-2-2-1 2 0 5 0 5-2 2zm-118-2 2-4c1-3 1-3-2 0l-4 4 1-4c0-3 0-3-2-3-2 1 0-3 3-6 4-3 13 1 11 4l-2 3-1 2-4 2-2 2zm121-6c-6-4-7-7-3-9l4-2 5 2c5 3 5 8 0 8-3-1-3-1-1 1 3 4 1 4-5 0zm-62-2-1-3c1-3-1-7-5-8-2 0-5-3-7-6-6-7-6-6-12-11-4-3-5-5-6-8-1-6 0-8 2-6 2 1 3 0 7-3 5-4 6-4 12-3 9 3 16 3 26 2 9-2 11-2 13-1 9 6 8 5 10 3 1-1 1-1 1 2 0 6-3 13-8 15-5 4-23 20-23 22l-2 1-2 2 3 1v2c-1 1-2 1-3-1h-5zm-68 0-1-5-1-3c-4 0-1-9 4-13h2c-1 0 0 3 2 4l3 6c-1 4-8 12-9 11zm136-9-4-2 2-6c2-6 1-15-2-19l-2-8c0-4-3-12-8-22l-8-15v-49l4-4 6-4 7-2c9-5 39 1 44 9 4 7 2 8-6 2-7-5-8-4-14 3-7 9-23 17-31 15-4-1-7 7-6 18 1 8 2 13 21 50l1 3v18c5 9 3 17-4 13zm2-109c11-6 12-16 1-16-3 0-4 0-5 2-1 4-5 5-8 2-4-4-6-3-9 1-3 7 12 15 21 11zM97 210l2-12c1-5 2-8 1-9v-1c2 0 12-15 17-25 8-18 6-39-4-39-12 0-23-6-31-16-7-9-8-9-14-6-5 3-6 2-4-2 4-8 36-11 48-5s13 8 15 30c3 28 3 31-11 54-4 5-5 10-5 12 0 6-6 20-9 21-4 2-5 2-5-2zm17-96c6-4 6-7 1-11l-3-4-3 4c-4 4-5 4-7 2-3-3-2-4 2-3h4c0-2-10-4-16-3-10 1-6 11 6 16 7 4 10 4 16-1zm56-8-1-26 1-21 1 10 2 12v3l-1 14c-1 9-1 11-2 7z"/><path fill="#536374" d="M146 332c-21-3-29-10-29-30 0-32-30-52-61-42-19 6-27 2-38-18-15-29-14-41 5-51 29-15 33-54 8-75-17-13-16-23 2-48 15-20 24-23 42-13 28 17 62 1 69-31 4-20 10-24 37-22 31 2 38 7 39 31 2 32 31 52 61 42 20-7 28-3 39 20 14 28 12 37-7 48a45 45 0 0 0-8 73c17 15 17 26 1 47-17 23-24 26-43 16-30-16-64-1-70 32-3 20-14 25-47 21zm30-11c6-3 8-5 11-21 7-29 44-45 74-31 33 16 62-23 36-50-22-23-20-62 4-78l11-7c12-8 7-39-10-50l-6-4-12 2c-23 6-33 4-51-9-16-12-22-22-22-39 0-30-52-36-60-8-9 37-46 55-77 38-17-9-24-7-36 10-13 20-13 26 1 40 24 25 20 63-10 83-15 11-16 18-7 34 11 20 17 24 36 19 32-7 64 16 67 49 1 14 3 18 11 21 10 5 31 5 40 1zm-60-66c0-1 0-2 1-1v2l-1-1Zm-3-6 4-6 3-4-2 6c-2 5-5 8-5 4zm113-3c-1-1-2-3-1-4 1-2 3-1 3 3 1 5 1 5-2 1zm-113-2 1-1v1l-1 1v-1zm-7-3c0-3 0-4-2-3s0-3 3-6c4-3 13 1 10 5l-2 3v1l-3 1c-2 1-2 1-1-1 1-3 1-2-2 0l-4 4zm124 2 1-2 2 2-1 1-2-1Zm-1-5c-6-4-6-6-1-8s5-2 9 0c4 3 4 8-1 8-3-1-3-1-1 1 2 3-1 3-6-1zm-61-1-1-3c2-2-1-6-5-8-3-1-6-4-8-7l-10-9c-4-3-6-5-7-9-1-6 0-9 2-6 2 1 3 0 7-3l5-4 8 2c9 2 13 2 27 0 9-1 10-1 14 2s6 3 7 1l1 2c0 6-3 12-7 15a127 127 0 0 0-26 23l-2 2 3 1c1 0 2 0 0 2-1 1-2 1-4-1-2-3-3-3-2-1 1 3 0 3-2 1zm-68 0-1-5-1-3c-4 0-1-9 4-13h2c-1 0 0 3 2 4l3 6c-1 4-8 12-9 11zm136-9-4-2 2-6c2-6 2-7 0-15l-4-14c0-3-4-12-8-20l-8-15v-49l4-4 6-4 7-2c9-5 39 1 44 9 4 7 2 8-6 2-7-5-8-4-14 3-7 9-23 17-31 15-11-3-9 20 4 46a71057 71057 0 0 1 11 25l1 8c1 5 0 7-1 7-1 1 0 2 1 3 5 7 3 17-4 13zm2-109c11-6 12-16 1-16-3 0-4 0-5 2-1 4-5 5-8 2-4-4-6-3-9 1-3 7 12 15 21 11zM97 210l2-12c1-5 2-8 1-9v-1c2 0 12-15 17-25 8-18 6-39-4-39-12 0-23-6-31-16-7-9-8-9-14-6-5 3-6 2-4-2 4-8 36-11 48-5s13 8 15 30c3 28 3 31-11 54-4 5-5 10-5 12 0 6-6 20-9 21-4 2-5 2-5-2zm17-96c6-4 6-7 1-11l-3-4-3 4c-4 4-5 4-7 2-3-3-2-4 2-3h4c0-2-10-4-16-3-10 1-6 11 6 16 7 4 10 4 16-1zm56-8-1-26 1-21 1 10 2 12v3l-1 14c-1 9-1 11-2 7z"/><path fill="#495a6d" d="M151 332c-27-3-34-9-34-30 0-31-32-53-61-43-21 8-29 2-42-26-10-23-8-33 9-41 28-16 33-55 8-76-17-13-16-23 3-49 15-19 24-22 41-12 28 17 62 1 69-31 4-20 10-24 37-22 30 2 39 8 39 30 0 31 30 53 61 43 20-7 28-3 39 20 13 28 12 38-5 47-30 16-34 55-9 75 17 13 16 24-2 48-16 21-22 23-42 14-30-16-62-2-69 31-4 20-13 25-42 22zm25-11c6-3 8-5 11-21 7-29 44-45 74-31 33 16 62-23 36-50a51 51 0 0 1 10-81c15-10 16-18 6-39-8-18-13-20-30-16-37 8-72-15-72-49 0-15-5-20-23-23-23-5-32-1-37 18-9 34-47 52-77 35-17-9-23-8-35 9-14 19-14 27 0 41 24 25 20 62-9 83-16 11-17 17-8 34 10 19 18 24 32 20 23-5 37-1 57 17 9 8 12 16 14 31 1 13 3 17 9 20 11 5 32 7 42 2zm-62-71c0-1 0-4 2-6 4-5 5-5 2 0l-2 5c-1 2-1 2-2 1zm112-4c-2-2-2-3-1-4 2-1 3 0 3 4l-1 3zm-113-2 1-1v1l-1 1v-1zm-8-1 2-5c1-2 1-2-2-1-4 2-1-3 3-5 5-3 12 2 9 5l-1 3c0 1 0 2-1 1l-3 1c-2 1-2 1-1-1 1-3 1-3-2 0l-4 2zm125 0 1-2 2 2-1 1-2-1Zm-1-5c-6-4-6-5 0-8 4-2 4-2 8 0 4 4 4 8-2 8-3-1-3-1-2 1 3 3 2 3-4-1zm-61-1-1-3c2-2-1-6-5-8-3-1-6-4-8-7l-10-9c-5-3-6-5-7-9-1-6 0-8 2-6 2 1 3 0 7-3l5-4 8 2c9 2 15 2 26 0 8-1 9-1 15 2 5 3 6 3 7 1 1-1 1-1 1 2 0 5-3 13-7 14l-11 10-10 8c-1 0-2 1-2 3l-3 3c-1 0-2 1-1 2l2 1c2 0 2 0 0 1-1 2-2 2-4 0-2-3-3-3-2-1 1 3 0 3-2 1zm-68 0-1-5c1-3 0-4-1-3-3 1-2-4 1-9l2-4 5 4 3 6c-1 4-9 12-9 11zm136-9-4-2 2-6 2-9c-5-19-9-31-13-38-13-23-14-67-2-73 16-8 46-5 53 5 6 8 4 9-5 3-7-5-8-5-15 4-6 9-18 14-30 14-11 0-9 20 4 45 11 24 11 22 11 34l1 11c5 7 2 15-4 12zm2-109c8-5 11-11 7-15-3-3-9-2-12 2l-3 4-4-4-4-3-3 3c-7 8 8 18 19 13zM97 210l2-11c2-5 2-8 1-9v-2c2 0 12-14 17-24 8-18 6-40-4-40-12 0-24-7-32-17-6-8-7-8-13-5-5 3-6 2-4-3 5-7 37-10 49-3 11 5 12 7 14 31 3 27 2 31-11 52-3 3-5 8-5 11 0 7-6 21-9 22-4 2-5 2-5-2zm17-96c6-4 6-7 1-11l-3-4-3 4c-4 4-5 4-7 2-3-2-2-3 2-3 5 1 5-2 0-3-19-3-24 7-7 16 7 4 11 4 17-1zm56-11V59l1 11 3 11-1 2-1 12c-1 8-1 10-2 8z"/><path fill="#365574" d="M141 331c-18-4-24-11-24-29 0-32-31-53-62-43-20 7-27 2-38-21-13-27-12-37 5-46 30-16 34-55 9-76-17-13-16-24 3-49 15-19 24-22 41-12 28 17 62 1 69-31 4-20 10-24 37-22 31 2 39 8 39 31 0 31 31 52 61 42 21-8 31-1 43 29 8 22 7 29-9 38-17 10-22 18-24 36-1 20 2 29 15 39 16 12 16 22 1 44-16 24-27 28-44 18-29-17-65-1-70 30-3 21-18 27-52 22zm35-10c6-3 8-5 11-21 7-29 45-45 74-31 33 16 62-23 36-50a51 51 0 0 1 10-81c15-10 16-18 6-39-8-18-13-21-30-16-36 9-72-15-72-49 0-17-11-25-37-25-15 0-19 3-23 20-10 34-47 52-77 35-17-10-24-8-37 11-12 19-12 25 2 39 24 25 20 62-9 83-16 11-17 17-8 34 10 19 18 24 32 20 18-4 28-3 42 5 19 12 27 24 29 43 1 13 3 17 9 20 11 5 32 7 42 2zm-62-71c-1-2 3-9 4-8l-1 5-3 3zm112-4c-1-2-2-3-1-4 2-1 4 2 3 5-1 1-1 1-2-1zm-121-3 2-5c1-2 1-2-2-1-3 2-3 2-1-1 4-5 6-6 11-4l4 2-4 5c-3 3-4 4-3 2 0-3 0-3-3 0l-4 2zm125 0 1-2 2 2-1 1-2-1Zm-1-5c-6-4-6-5 0-8 4-2 4-2 8 0 4 4 4 7-1 7-4 0-4 1-3 2 3 3 1 3-4-1zm-61-1-1-3c2-2-1-6-6-9-3-1-6-4-8-7-2-2-5-6-8-7-6-4-8-7-8-13 0-4 1-5 2-3 2 1 3 1 7-2 4-4 5-4 10-3 14 2 19 2 29 1 9-2 10-2 14 1 3 2 6 3 7 2 1 0 2 0 2 2 0 3-5 13-6 13l-11 9-11 9c-1 0-2 1-2 3l-3 3-2 2-2 1c-1-1-1-1-1 1 1 2 0 2-2 0zm6 1h2l-1 1-1-1zm-74-3v-5l-2-2c-2 1-1-5 1-9l3-3 4 4c4 4 4 6-2 13-4 5-4 5-4 2zm137-7-5-3 2-6c2-5 2-7 0-13l-4-16-7-18c-9-15-10-19-10-42 0-12 1-21 2-22 2-5 7-9 9-9l6-2c9-5 39 1 44 8 6 8 4 9-5 3-7-5-8-5-14 3-7 9-18 15-31 15-5 0-7 5-6 17 0 10 1 12 14 36l5 13 1 3 1 9 2 13v6c4 4 0 8-4 5zm1-109c8-5 11-11 7-15-3-3-9-2-12 2l-3 4-4-4-4-3-3 3c-7 8 8 18 19 13zM97 210l2-11c1-4 2-8 1-9l6-9c18-23 22-57 7-57-12 0-24-7-32-17-6-7-10-9-13-5-2 2-5 3-5 1 0-10 35-15 50-7 21 10 22 55 3 83-3 3-5 8-5 11 0 7-6 21-9 22-4 2-5 2-5-2zm17-96c6-4 6-7 1-11l-3-4-3 4c-4 4-5 4-7 2-3-2-2-3 2-3 5 1 5-2 0-3-19-3-24 7-7 16 7 4 11 4 17-1zm56-13V59l1 11 3 11-1 2-1 11c-1 6-1 8-2 7z"/><path fill="#484d50" d="M143 331c-20-4-25-9-26-29-1-33-32-54-63-43-17 7-25 2-37-20-14-28-12-39 8-49 27-14 30-52 5-74-16-15-14-29 9-54 14-15 18-16 37-6 28 15 63-1 68-31 3-21 15-27 46-22 23 3 29 8 30 29 1 32 30 53 61 43 21-7 27-4 39 21 13 28 12 36-9 48-25 14-29 55-6 73 16 12 17 22 3 43-17 24-27 28-46 18-29-16-63 0-69 32-4 21-17 26-50 21zm32-9c6-2 10-8 12-18 6-33 43-49 77-33 17 8 24 5 36-14 12-17 11-23-3-38-25-26-20-63 9-81 15-9 17-17 9-36s-15-24-32-19c-24 6-39 1-59-18-10-10-12-14-13-30-2-19-7-24-32-25-21-2-23 0-29 20a53 53 0 0 1-77 34c-19-10-27-7-40 19-8 14-7 18 7 32 23 25 18 63-11 82-15 10-16 16-8 33 11 21 18 25 37 21 33-7 64 16 67 47 1 17 4 22 18 25 8 1 26 1 32-1zm-61-72c-1-2 3-9 4-8l-1 5-3 3zm112-4c-1-2-2-3-1-4 2-1 4 2 3 5-1 1-1 1-2-1zm-121-3 2-5c1-2 1-2-2-1-3 2-3 2-1-1 4-5 6-6 11-4l4 2-4 5c-3 3-4 4-3 2 0-3 0-3-3 0l-4 2zm125 0 1-2 2 2-1 1-2-1Zm-1-5c-6-4-6-5 0-8 4-2 4-2 8 0 4 4 4 7-1 7-4 0-4 1-3 2 3 3 1 3-4-1zm-61-1-1-3c2-2-1-6-6-9-3-1-6-4-8-7-2-2-5-6-8-7-6-4-8-7-8-13 0-4 1-5 2-3 2 1 3 1 7-2 4-4 5-4 10-3 14 2 19 2 29 1 9-2 10-2 14 1 3 2 6 3 7 2 1 0 2 0 2 2 0 3-5 13-6 13l-11 9-11 9c-1 0-2 1-2 3l-3 3-2 2-2 1c-1-1-1-1-1 1 1 2 0 2-2 0zm6 1h2l-1 1-1-1zm-74-3v-5l-2-2c-2 1-1-5 1-9l3-3 4 4c4 4 4 6-2 13-4 5-4 5-4 2zm137-7-5-3 2-6c2-5 2-7 0-13l-4-16-7-18c-9-15-10-19-10-42 0-12 1-21 2-22 2-5 7-9 9-9l6-2c9-5 39 1 44 8 6 8 4 9-5 3-7-5-8-5-14 3-7 9-18 15-31 15-5 0-7 5-6 17 0 10 1 12 14 36l5 13 1 3 1 9 2 13v6c4 4 0 8-4 5zm1-109c8-5 11-11 7-15-3-3-9-2-12 2l-3 4-4-4-4-3-3 3c-7 8 8 18 19 13zM97 210l2-11c1-4 2-8 1-9l6-9c18-23 22-57 7-57-12 0-24-7-32-17-6-7-10-9-13-5-2 2-5 3-5 1 0-10 35-15 50-7 21 10 22 55 3 83-3 3-5 8-5 11 0 7-6 21-9 22-4 2-5 2-5-2zm17-96c6-4 6-7 1-11l-3-4-3 4c-4 4-5 4-7 2-3-2-2-3 2-3 5 1 5-2 0-3-19-3-24 7-7 16 7 4 11 4 17-1zm56-13V59l1 11 3 11-1 2-1 11c-1 6-1 8-2 7z"/><path fill="#254668" d="M143 331c-20-4-25-9-26-29-1-33-32-54-63-43-17 7-25 2-37-20-14-28-12-39 8-49 27-14 30-52 5-74-16-15-14-29 9-54 14-15 18-16 37-6 28 15 63-1 68-31 3-21 15-27 46-22 23 3 29 8 30 29 1 32 30 53 61 43 21-7 27-4 39 21 13 28 12 36-9 48-25 14-29 55-6 73 16 12 17 22 3 43-17 24-27 28-46 18-29-16-63 0-69 32-4 21-17 26-50 21zm32-9c6-2 10-8 12-18 6-33 43-49 77-33 17 8 24 5 36-14 12-17 11-23-3-38-25-26-20-63 9-81 15-9 17-17 9-36s-15-24-32-19c-24 6-39 1-59-18-10-10-12-14-13-30-2-19-7-24-32-25-21-2-23 0-29 20a53 53 0 0 1-77 34c-19-10-27-7-40 19-8 14-7 18 7 32 23 25 18 63-11 82-15 10-16 16-8 33 11 21 18 25 37 21 33-7 64 16 67 47 1 17 4 22 18 25 8 1 26 1 32-1zm-62-73 3-5c3-3 3-3 1 2-1 3-4 5-4 3zm113-3c-1-2-2-3-1-4 2-1 4 2 3 5-1 1-1 1-2-1zm-121-3 2-4c1-3 0-4-3-1l1-3c4-5 5-5 10-2l4 1-4 5c-3 3-4 4-3 2 0-3 0-3-3 0l-4 2zm125 0 1-2 2 2-1 1-2-1Zm0-4c-6-4-7-7-3-8l4-2c1-1 2-1 5 1 4 4 4 7 0 7s-5 0-2 3c2 2 1 2-4-1zm-62-2-1-3c2-2-1-6-6-9-3-1-6-5-8-7-1-3-4-6-7-7-6-3-9-7-9-12s1-6 2-4c2 1 3 1 7-2l5-4 11 2c9 2 11 2 21 0 11-2 12-2 16 1 3 2 6 3 7 2 1 0 2 0 2 2 0 3-5 13-7 13l-9 8a1320 1320 0 0 1-24 20zm-68-3v-5c2-1 1-1 0-1-4 2-4-1-1-7l2-5 4 4c5 5 5 8-2 13-3 3-3 3-3 1zm136-6c-3-2-4-3-3-4 2-3 3-13 2-17l-4-14-9-23-8-16v-23c0-25 1-29 9-32l8-2c4-2 19-1 32 2 7 1 8 2 11 6 5 7 3 8-4 3-8-5-9-5-14 2-7 9-21 16-31 16-6-1-8 4-7 17 0 10 2 14 12 32a87 87 0 0 1 8 20l2 10c0 11 1 18 2 20 2 4-1 6-6 3zm7-113c3-3 4-5 3-8 0-5-8-6-13-1l-3 4-4-4c-4-3-6-3-9 2-5 10 16 16 26 7zM97 210l2-11 2-9 1-3c20-24 28-70 12-63-7 2-26-7-33-17-5-8-8-9-14-5-4 3-5 2-3-2 4-8 36-11 49-5 11 6 12 8 14 32 3 28 2 31-12 52-3 5-4 8-4 11l-3 11-3 8c-1 4-8 5-8 1zm16-95c6-5 7-8 3-12-3-3-7-4-7-2 0 3-4 6-6 4-4-2-4-3 1-3 5 1 5-1 1-2-6-2-18-1-18 0-2 13 15 23 26 15zm57-36c0-17 0-18 1-9l3 11c1 1 1 2-1 2l-1 5-1 8c-1 1-2-4-1-17z"/><path fill="#3a3e41" d="m113 249 3-5c3-3 3-3 1 2-1 3-4 5-4 3zm113-3c-1-2-2-3-1-4 2-1 4 2 3 5-1 1-1 1-2-1zm-121-3 2-4c1-3 0-4-3-1l1-3c4-5 5-5 10-2l4 1-4 5c-3 3-4 4-3 2 0-3 0-3-3 0l-4 2zm125 0 1-2 2 2-1 1-2-1Zm0-4c-6-4-7-7-3-8l4-2c1-1 2-1 5 1 4 4 4 7 0 7s-5 0-2 3c2 2 1 2-4-1zm-62-2-1-3c2-2-1-6-6-9-3-1-6-5-8-7-1-3-4-6-7-7-6-3-9-7-9-12s1-6 2-4c2 1 3 1 7-2l5-4 11 2c9 2 11 2 21 0 11-2 12-2 16 1 3 2 6 3 7 2 1 0 2 0 2 2 0 3-5 13-7 13l-9 8a1320 1320 0 0 1-24 20zm-68-3v-5c2-1 1-1 0-1-4 2-4-1-1-7l2-5 4 4c5 5 5 8-2 13-3 3-3 3-3 1zm136-6c-3-2-4-3-3-4 2-3 3-13 2-17l-4-14-9-23-8-16v-23c0-25 1-29 9-32l8-2c4-2 19-1 32 2 7 1 8 2 11 6 5 7 3 8-4 3-8-5-9-5-14 2-7 9-21 16-31 16-6-1-8 4-7 17 0 10 2 14 12 32a87 87 0 0 1 8 20l2 10c0 11 1 18 2 20 2 4-1 6-6 3zm7-113c3-3 4-5 3-8 0-5-8-6-13-1l-3 4-4-4c-4-3-6-3-9 2-5 10 16 16 26 7zM97 210l2-11 2-9 1-3c20-24 28-70 12-63-7 2-26-7-33-17-5-8-8-9-14-5-4 3-5 2-3-2 4-8 36-11 49-5 11 6 12 8 14 32 3 28 2 31-12 52-3 5-4 8-4 11l-3 11-3 8c-1 4-8 5-8 1zm16-95c6-5 7-8 3-12-3-3-7-4-7-2 0 3-4 6-6 4-4-2-4-3 1-3 5 1 5-1 1-2-6-2-18-1-18 0-2 13 15 23 26 15zm57-36c0-17 0-18 1-9l3 11c1 1 1 2-1 2l-1 5-1 8c-1 1-2-4-1-17z"/><path fill="#363736" d="m115 247 2-3c1 1-1 5-3 5l1-2zm110-2c-1-2-1-2 1-2l2 2-1 3-2-3zm-120-3 2-4c1-2 1-2-1-2-3 2-1-2 2-4 7-4 11 2 6 8-3 3-3 3-2 1 0-3 0-3-2-1-3 3-5 3-5 2zm124-4c-5-3-6-6-2-7l4-2c1-1 2-1 5 1 4 4 4 7 0 7-3 0-4 0-3 1 0 2 1 2-4 0zm-61-1v-3c1-3-2-7-7-9l-8-7c-1-3-5-6-7-7-7-5-9-7-9-13 0-4 1-5 2-4 2 3 3 2 8-2l4-3 11 2c10 2 12 2 22 0l11-2 4 4c4 2 6 3 7 1 2-1 2-1 1 3-1 7-2 9-10 15l-9 8-6 5-4 4c0 2-2 3-3 3l-2 2c0 1 0 2-1 1l-3 1-1 1zm-68-5c1-3 0-4-1-3-3 1-3-2 0-8l3-5 4 4c4 5 3 8-3 14l-3 3zm137-4c-3-3-4-4-2-9 2-9-4-30-13-50l-8-15v-23c0-25 1-29 9-31l7-3c6-3 38 1 41 5 8 10 8 12-1 6-8-5-8-5-16 3-8 10-18 15-29 14-12 0-10 24 4 48a112 112 0 0 1 10 22l1 10a314 314 0 0 0 1 26l-4-3zm-1-109c6-1 11-7 10-12 0-5-9-6-12-2s-6 4-9 0c-3-3-5-2-8 3-2 5 8 14 14 13l5-2zM97 211l2-11 2-10c-1-1 0-2 1-3 9-10 19-28 19-35 2-21 0-28-10-29-13-1-34-14-34-22 0-2-7-1-10 1s-3 2-3 0c0-9 34-13 49-6 10 4 12 8 14 26l2 21c0 6-2 17-5 20l-1 3-6 10c-3 5-6 11-6 14-3 15-14 32-14 21zm16-96c7-5 7-15-1-15l-4 3c-1 2-6 3-7 1-1-1 1-1 3-1l4-2c0-3-21-4-22 0-4 10 16 21 27 14Zm57-36c0-16 0-17 1-9l1 10-1 9-1 9V79z"/><path fill="#30302c" d="M115 247c0-2 1-3 2-3l-1 3-2 2 1-2zm111-2c-2-2-2-2 0-2l2 2v3l-2-3zm-121-3 2-3c2-1 1-3-1-2-2 0-2-1 1-3 3-3 4-3 7-2 4 2 4 3 0 6l-1 1c1-3-1-2-5 1-1 2-3 2-3 2zm124-4c-5-3-6-6-2-7l4-2c1-1 2-1 5 1 5 4 4 7-1 6-4 0-4 1-3 2 2 2 2 2-3 0zm-129-6c1-3 0-4-1-3-4 1-2-8 2-11 4-2 8 6 6 10-4 8-7 9-7 4zm67-1c-1-2-2-4-5-5l-8-7-9-9c-6-4-8-6-8-12 0-5 1-5 2-3 2 2 2 2 7-2 6-4 6-4 17-2 8 3 11 2 24 0 6-2 7-1 12 2 5 2 6 3 8 1v3c-1 6-4 11-8 13-5 3-26 23-26 24 0 3-5 1-6-3zm69-4c-3-2-3-3-2-5 3-4 2-10 0-19l-4-14-7-18c-10-17-14-56-6-66 8-12 48-12 57 1 5 6 4 7-4 2s-9-5-15 3c-9 10-19 15-30 14-12 0-11 21 2 46a144 144 0 0 1 11 23l2 11 1 17c0 8 0 9-5 5zm3-109c5-2 8-7 7-11 0-5-9-6-12-2s-6 4-9 0c-3-3-5-3-7 2-2 4-2 4 2 8 6 7 10 7 19 3zM97 211l2-11 2-10v-2c5-2 20-30 21-38 1-19-1-26-9-27-10-1-14-2-18-4-5-3-13-11-16-15-2-5-7-5-12-2-3 2-5-2-1-4 12-10 51-6 57 6 6 11 7 53 2 59-2 1-2 2-2 3l-6 11c-4 6-6 10-6 13l-3 10-3 8c0 1-1 3-4 4s-4 1-4-1zm16-96c7-5 6-15-1-15l-4 3c-1 2-6 3-7 1-1-1 1-1 3-1 4 0 5-2 2-4-10-3-22 0-19 7 4 10 17 15 26 9zm57-36c0-14 0-16 1-10l1 10c1 1 0 5-1 10-1 8-1 8-1-10z"/></svg>